<svg xmlns="http://www.w3.org/2000/svg" viewBox="0 0 512 512" role="img" aria-label="Iris Stack">
  <!-- Shared Iris application mark. -->
  <defs>
    <mask id="iris-ring-mask" maskUnits="userSpaceOnUse" x="0" y="0" width="512" height="512">
      <rect width="512" height="512" fill="#000000"/>
      <circle cx="256.000" cy="256.000" r="253.000" fill="#ffffff"/>
      <circle cx="256.000" cy="256.000" r="146.000" fill="#000000"/>
    </mask>
  </defs>
  <g mask="url(#iris-ring-mask)">
    <path d="M 256.000 256.000 L 516.998 255.089 A 261.000 261.000 0 0 1 516.981 259.189 Z" fill="#F43F5E"/>
    <path d="M 256.000 256.000 L 516.996 257.367 A 261.000 261.000 0 0 1 516.943 261.466 Z" fill="#F4405D"/>
    <path d="M 256.000 256.000 L 516.975 259.644 A 261.000 261.000 0 0 1 516.885 263.743 Z" fill="#F4405C"/>
    <path d="M 256.000 256.000 L 516.933 261.921 A 261.000 261.000 0 0 1 516.808 266.019 Z" fill="#F4415C"/>
    <path d="M 256.000 256.000 L 516.871 264.198 A 261.000 261.000 0 0 1 516.710 268.295 Z" fill="#F4415B"/>
    <path d="M 256.000 256.000 L 516.790 266.474 A 261.000 261.000 0 0 1 516.593 270.569 Z" fill="#F4425A"/>
    <path d="M 256.000 256.000 L 516.688 268.750 A 261.000 261.000 0 0 1 516.456 272.843 Z" fill="#F44259"/>
    <path d="M 256.000 256.000 L 516.567 271.024 A 261.000 261.000 0 0 1 516.299 275.115 Z" fill="#F44359"/>
    <path d="M 256.000 256.000 L 516.426 273.297 A 261.000 261.000 0 0 1 516.122 277.386 Z" fill="#F44358"/>
    <path d="M 256.000 256.000 L 516.265 275.569 A 261.000 261.000 0 0 1 515.926 279.655 Z" fill="#F44457"/>
    <path d="M 256.000 256.000 L 516.085 277.840 A 261.000 261.000 0 0 1 515.710 281.922 Z" fill="#F54457"/>
    <path d="M 256.000 256.000 L 515.884 280.109 A 261.000 261.000 0 0 1 515.473 284.188 Z" fill="#F54556"/>
    <path d="M 256.000 256.000 L 515.664 282.376 A 261.000 261.000 0 0 1 515.218 286.451 Z" fill="#F54555"/>
    <path d="M 256.000 256.000 L 515.424 284.641 A 261.000 261.000 0 0 1 514.942 288.712 Z" fill="#F54655"/>
    <path d="M 256.000 256.000 L 515.164 286.903 A 261.000 261.000 0 0 1 514.647 290.970 Z" fill="#F54654"/>
    <path d="M 256.000 256.000 L 514.884 289.164 A 261.000 261.000 0 0 1 514.332 293.226 Z" fill="#F54753"/>
    <path d="M 256.000 256.000 L 514.585 291.422 A 261.000 261.000 0 0 1 513.997 295.479 Z" fill="#F54752"/>
    <path d="M 256.000 256.000 L 514.266 293.677 A 261.000 261.000 0 0 1 513.643 297.729 Z" fill="#F54852"/>
    <path d="M 256.000 256.000 L 513.928 295.929 A 261.000 261.000 0 0 1 513.269 299.976 Z" fill="#F54851"/>
    <path d="M 256.000 256.000 L 513.569 298.179 A 261.000 261.000 0 0 1 512.875 302.219 Z" fill="#F54950"/>
    <path d="M 256.000 256.000 L 513.191 300.425 A 261.000 261.000 0 0 1 512.462 304.459 Z" fill="#F54950"/>
    <path d="M 256.000 256.000 L 512.794 302.667 A 261.000 261.000 0 0 1 512.029 306.695 Z" fill="#F54A4F"/>
    <path d="M 256.000 256.000 L 512.377 304.907 A 261.000 261.000 0 0 1 511.577 308.927 Z" fill="#F54A4E"/>
    <path d="M 256.000 256.000 L 511.940 307.142 A 261.000 261.000 0 0 1 511.106 311.156 Z" fill="#F54B4E"/>
    <path d="M 256.000 256.000 L 511.484 309.373 A 261.000 261.000 0 0 1 510.615 313.380 Z" fill="#F54B4D"/>
    <path d="M 256.000 256.000 L 511.009 311.601 A 261.000 261.000 0 0 1 510.104 315.600 Z" fill="#F54C4C"/>
    <path d="M 256.000 256.000 L 510.514 313.824 A 261.000 261.000 0 0 1 509.574 317.815 Z" fill="#F54C4B"/>
    <path d="M 256.000 256.000 L 510.000 316.043 A 261.000 261.000 0 0 1 509.025 320.025 Z" fill="#F54D4B"/>
    <path d="M 256.000 256.000 L 509.466 318.257 A 261.000 261.000 0 0 1 508.457 322.231 Z" fill="#F54D4A"/>
    <path d="M 256.000 256.000 L 508.913 320.467 A 261.000 261.000 0 0 1 507.869 324.431 Z" fill="#F54E49"/>
    <path d="M 256.000 256.000 L 508.341 322.671 A 261.000 261.000 0 0 1 507.263 326.627 Z" fill="#F54E49"/>
    <path d="M 256.000 256.000 L 507.749 324.871 A 261.000 261.000 0 0 1 506.637 328.817 Z" fill="#F64F48"/>
    <path d="M 256.000 256.000 L 507.139 327.065 A 261.000 261.000 0 0 1 505.992 331.001 Z" fill="#F64F47"/>
    <path d="M 256.000 256.000 L 506.509 329.254 A 261.000 261.000 0 0 1 505.328 333.180 Z" fill="#F65047"/>
    <path d="M 256.000 256.000 L 505.860 331.437 A 261.000 261.000 0 0 1 504.645 335.353 Z" fill="#F65046"/>
    <path d="M 256.000 256.000 L 505.193 333.615 A 261.000 261.000 0 0 1 503.943 337.519 Z" fill="#F65145"/>
    <path d="M 256.000 256.000 L 504.506 335.786 A 261.000 261.000 0 0 1 503.222 339.680 Z" fill="#F65144"/>
    <path d="M 256.000 256.000 L 503.800 337.952 A 261.000 261.000 0 0 1 502.482 341.834 Z" fill="#F65244"/>
    <path d="M 256.000 256.000 L 503.075 340.111 A 261.000 261.000 0 0 1 501.724 343.982 Z" fill="#F65243"/>
    <path d="M 256.000 256.000 L 502.332 342.264 A 261.000 261.000 0 0 1 500.947 346.123 Z" fill="#F65342"/>
    <path d="M 256.000 256.000 L 501.570 344.411 A 261.000 261.000 0 0 1 500.151 348.257 Z" fill="#F65342"/>
    <path d="M 256.000 256.000 L 500.789 346.550 A 261.000 261.000 0 0 1 499.337 350.384 Z" fill="#F65441"/>
    <path d="M 256.000 256.000 L 499.990 348.683 A 261.000 261.000 0 0 1 498.504 352.504 Z" fill="#F65440"/>
    <path d="M 256.000 256.000 L 499.171 350.809 A 261.000 261.000 0 0 1 497.652 354.616 Z" fill="#F65540"/>
    <path d="M 256.000 256.000 L 498.335 352.927 A 261.000 261.000 0 0 1 496.782 356.721 Z" fill="#F6553F"/>
    <path d="M 256.000 256.000 L 497.480 355.038 A 261.000 261.000 0 0 1 495.894 358.819 Z" fill="#F6563E"/>
    <path d="M 256.000 256.000 L 496.606 357.142 A 261.000 261.000 0 0 1 494.988 360.908 Z" fill="#F6573D"/>
    <path d="M 256.000 256.000 L 495.715 359.237 A 261.000 261.000 0 0 1 494.063 362.990 Z" fill="#F6573D"/>
    <path d="M 256.000 256.000 L 494.804 361.325 A 261.000 261.000 0 0 1 493.121 365.063 Z" fill="#F6583C"/>
    <path d="M 256.000 256.000 L 493.876 363.405 A 261.000 261.000 0 0 1 492.160 367.128 Z" fill="#F6583B"/>
    <path d="M 256.000 256.000 L 492.930 365.477 A 261.000 261.000 0 0 1 491.181 369.185 Z" fill="#F6593B"/>
    <path d="M 256.000 256.000 L 491.966 367.540 A 261.000 261.000 0 0 1 490.184 371.233 Z" fill="#F7593A"/>
    <path d="M 256.000 256.000 L 490.983 369.595 A 261.000 261.000 0 0 1 489.170 373.272 Z" fill="#F75A39"/>
    <path d="M 256.000 256.000 L 489.983 371.642 A 261.000 261.000 0 0 1 488.138 375.303 Z" fill="#F75A39"/>
    <path d="M 256.000 256.000 L 488.965 373.679 A 261.000 261.000 0 0 1 487.088 377.324 Z" fill="#F75B38"/>
    <path d="M 256.000 256.000 L 487.929 375.708 A 261.000 261.000 0 0 1 486.020 379.336 Z" fill="#F75B37"/>
    <path d="M 256.000 256.000 L 486.876 377.727 A 261.000 261.000 0 0 1 484.935 381.338 Z" fill="#F75C36"/>
    <path d="M 256.000 256.000 L 485.805 379.737 A 261.000 261.000 0 0 1 483.833 383.331 Z" fill="#F75C36"/>
    <path d="M 256.000 256.000 L 484.716 381.738 A 261.000 261.000 0 0 1 482.713 385.315 Z" fill="#F75D35"/>
    <path d="M 256.000 256.000 L 483.610 383.729 A 261.000 261.000 0 0 1 481.576 387.288 Z" fill="#F75D34"/>
    <path d="M 256.000 256.000 L 482.487 385.710 A 261.000 261.000 0 0 1 480.421 389.252 Z" fill="#F75E34"/>
    <path d="M 256.000 256.000 L 481.346 387.682 A 261.000 261.000 0 0 1 479.250 391.205 Z" fill="#F75E33"/>
    <path d="M 256.000 256.000 L 480.189 389.643 A 261.000 261.000 0 0 1 478.062 393.148 Z" fill="#F75F32"/>
    <path d="M 256.000 256.000 L 479.014 391.594 A 261.000 261.000 0 0 1 476.856 395.081 Z" fill="#F75F32"/>
    <path d="M 256.000 256.000 L 477.822 393.535 A 261.000 261.000 0 0 1 475.634 397.003 Z" fill="#F76031"/>
    <path d="M 256.000 256.000 L 476.613 395.466 A 261.000 261.000 0 0 1 474.395 398.914 Z" fill="#F76030"/>
    <path d="M 256.000 256.000 L 475.388 397.386 A 261.000 261.000 0 0 1 473.140 400.814 Z" fill="#F7612F"/>
    <path d="M 256.000 256.000 L 474.146 399.295 A 261.000 261.000 0 0 1 471.868 402.704 Z" fill="#F7612F"/>
    <path d="M 256.000 256.000 L 472.887 401.193 A 261.000 261.000 0 0 1 470.580 404.582 Z" fill="#F7622E"/>
    <path d="M 256.000 256.000 L 471.612 403.080 A 261.000 261.000 0 0 1 469.275 406.449 Z" fill="#F7622D"/>
    <path d="M 256.000 256.000 L 470.320 404.956 A 261.000 261.000 0 0 1 467.954 408.304 Z" fill="#F7632D"/>
    <path d="M 256.000 256.000 L 469.012 406.821 A 261.000 261.000 0 0 1 466.617 410.148 Z" fill="#F7632C"/>
    <path d="M 256.000 256.000 L 467.688 408.674 A 261.000 261.000 0 0 1 465.263 411.980 Z" fill="#F8642B"/>
    <path d="M 256.000 256.000 L 466.347 410.515 A 261.000 261.000 0 0 1 463.894 413.800 Z" fill="#F8642B"/>
    <path d="M 256.000 256.000 L 464.991 412.345 A 261.000 261.000 0 0 1 462.509 415.609 Z" fill="#F8652A"/>
    <path d="M 256.000 256.000 L 463.619 414.163 A 261.000 261.000 0 0 1 461.109 417.405 Z" fill="#F86529"/>
    <path d="M 256.000 256.000 L 462.230 415.969 A 261.000 261.000 0 0 1 459.692 419.188 Z" fill="#F86628"/>
    <path d="M 256.000 256.000 L 460.827 417.762 A 261.000 261.000 0 0 1 458.261 420.960 Z" fill="#F86628"/>
    <path d="M 256.000 256.000 L 459.407 419.544 A 261.000 261.000 0 0 1 456.813 422.718 Z" fill="#F86727"/>
    <path d="M 256.000 256.000 L 457.972 421.312 A 261.000 261.000 0 0 1 455.351 424.464 Z" fill="#F86726"/>
    <path d="M 256.000 256.000 L 456.522 423.069 A 261.000 261.000 0 0 1 453.873 426.198 Z" fill="#F86826"/>
    <path d="M 256.000 256.000 L 455.056 424.812 A 261.000 261.000 0 0 1 452.380 427.918 Z" fill="#F86825"/>
    <path d="M 256.000 256.000 L 453.576 426.543 A 261.000 261.000 0 0 1 450.873 429.625 Z" fill="#F86924"/>
    <path d="M 256.000 256.000 L 452.080 428.260 A 261.000 261.000 0 0 1 449.350 431.319 Z" fill="#F86924"/>
    <path d="M 256.000 256.000 L 450.569 429.965 A 261.000 261.000 0 0 1 447.813 433.000 Z" fill="#F86A23"/>
    <path d="M 256.000 256.000 L 449.044 431.656 A 261.000 261.000 0 0 1 446.261 434.667 Z" fill="#F86A22"/>
    <path d="M 256.000 256.000 L 447.503 433.334 A 261.000 261.000 0 0 1 444.694 436.320 Z" fill="#F86B21"/>
    <path d="M 256.000 256.000 L 445.949 434.999 A 261.000 261.000 0 0 1 443.114 437.960 Z" fill="#F86B21"/>
    <path d="M 256.000 256.000 L 444.379 436.649 A 261.000 261.000 0 0 1 441.519 439.586 Z" fill="#F86C20"/>
    <path d="M 256.000 256.000 L 442.796 438.286 A 261.000 261.000 0 0 1 439.910 441.198 Z" fill="#F86C1F"/>
    <path d="M 256.000 256.000 L 441.198 439.910 A 261.000 261.000 0 0 1 438.286 442.796 Z" fill="#F86D1F"/>
    <path d="M 256.000 256.000 L 439.586 441.519 A 261.000 261.000 0 0 1 436.649 444.379 Z" fill="#F86D1E"/>
    <path d="M 256.000 256.000 L 437.960 443.114 A 261.000 261.000 0 0 1 434.999 445.949 Z" fill="#F86E1D"/>
    <path d="M 256.000 256.000 L 436.320 444.694 A 261.000 261.000 0 0 1 433.334 447.503 Z" fill="#F96E1D"/>
    <path d="M 256.000 256.000 L 434.667 446.261 A 261.000 261.000 0 0 1 431.656 449.044 Z" fill="#F96F1C"/>
    <path d="M 256.000 256.000 L 433.000 447.813 A 261.000 261.000 0 0 1 429.965 450.569 Z" fill="#F96F1B"/>
    <path d="M 256.000 256.000 L 431.319 449.350 A 261.000 261.000 0 0 1 428.260 452.080 Z" fill="#F9701A"/>
    <path d="M 256.000 256.000 L 429.625 450.873 A 261.000 261.000 0 0 1 426.543 453.576 Z" fill="#F9701A"/>
    <path d="M 256.000 256.000 L 427.918 452.380 A 261.000 261.000 0 0 1 424.812 455.056 Z" fill="#F97119"/>
    <path d="M 256.000 256.000 L 426.198 453.873 A 261.000 261.000 0 0 1 423.069 456.522 Z" fill="#F97118"/>
    <path d="M 256.000 256.000 L 424.464 455.351 A 261.000 261.000 0 0 1 421.312 457.972 Z" fill="#F97218"/>
    <path d="M 256.000 256.000 L 422.718 456.813 A 261.000 261.000 0 0 1 419.544 459.407 Z" fill="#F97217"/>
    <path d="M 256.000 256.000 L 420.960 458.261 A 261.000 261.000 0 0 1 417.762 460.827 Z" fill="#F97316"/>
    <path d="M 256.000 256.000 L 419.188 459.692 A 261.000 261.000 0 0 1 415.969 462.230 Z" fill="#F97416"/>
    <path d="M 256.000 256.000 L 417.405 461.109 A 261.000 261.000 0 0 1 414.163 463.619 Z" fill="#F97416"/>
    <path d="M 256.000 256.000 L 415.609 462.509 A 261.000 261.000 0 0 1 412.345 464.991 Z" fill="#F97516"/>
    <path d="M 256.000 256.000 L 413.800 463.894 A 261.000 261.000 0 0 1 410.515 466.347 Z" fill="#F97616"/>
    <path d="M 256.000 256.000 L 411.980 465.263 A 261.000 261.000 0 0 1 408.674 467.688 Z" fill="#F97716"/>
    <path d="M 256.000 256.000 L 410.148 466.617 A 261.000 261.000 0 0 1 406.821 469.012 Z" fill="#F97816"/>
    <path d="M 256.000 256.000 L 408.304 467.954 A 261.000 261.000 0 0 1 404.956 470.320 Z" fill="#F97916"/>
    <path d="M 256.000 256.000 L 406.449 469.275 A 261.000 261.000 0 0 1 403.080 471.612 Z" fill="#F97A16"/>
    <path d="M 256.000 256.000 L 404.582 470.580 A 261.000 261.000 0 0 1 401.193 472.887 Z" fill="#F97A16"/>
    <path d="M 256.000 256.000 L 402.704 471.868 A 261.000 261.000 0 0 1 399.295 474.146 Z" fill="#F97B16"/>
    <path d="M 256.000 256.000 L 400.814 473.140 A 261.000 261.000 0 0 1 397.386 475.388 Z" fill="#F97C16"/>
    <path d="M 256.000 256.000 L 398.914 474.395 A 261.000 261.000 0 0 1 395.466 476.613 Z" fill="#F97D16"/>
    <path d="M 256.000 256.000 L 397.003 475.634 A 261.000 261.000 0 0 1 393.535 477.822 Z" fill="#F97E16"/>
    <path d="M 256.000 256.000 L 395.081 476.856 A 261.000 261.000 0 0 1 391.594 479.014 Z" fill="#F97F16"/>
    <path d="M 256.000 256.000 L 393.148 478.062 A 261.000 261.000 0 0 1 389.643 480.189 Z" fill="#F98016"/>
    <path d="M 256.000 256.000 L 391.205 479.250 A 261.000 261.000 0 0 1 387.682 481.346 Z" fill="#F98116"/>
    <path d="M 256.000 256.000 L 389.252 480.421 A 261.000 261.000 0 0 1 385.710 482.487 Z" fill="#F98116"/>
    <path d="M 256.000 256.000 L 387.288 481.576 A 261.000 261.000 0 0 1 383.729 483.610 Z" fill="#F98216"/>
    <path d="M 256.000 256.000 L 385.315 482.713 A 261.000 261.000 0 0 1 381.738 484.716 Z" fill="#F98316"/>
    <path d="M 256.000 256.000 L 383.331 483.833 A 261.000 261.000 0 0 1 379.737 485.805 Z" fill="#F98416"/>
    <path d="M 256.000 256.000 L 381.338 484.935 A 261.000 261.000 0 0 1 377.727 486.876 Z" fill="#F98516"/>
    <path d="M 256.000 256.000 L 379.336 486.020 A 261.000 261.000 0 0 1 375.708 487.929 Z" fill="#F98616"/>
    <path d="M 256.000 256.000 L 377.324 487.088 A 261.000 261.000 0 0 1 373.679 488.965 Z" fill="#F98716"/>
    <path d="M 256.000 256.000 L 375.303 488.138 A 261.000 261.000 0 0 1 371.642 489.983 Z" fill="#F98716"/>
    <path d="M 256.000 256.000 L 373.272 489.170 A 261.000 261.000 0 0 1 369.595 490.983 Z" fill="#F98816"/>
    <path d="M 256.000 256.000 L 371.233 490.184 A 261.000 261.000 0 0 1 367.540 491.966 Z" fill="#F98916"/>
    <path d="M 256.000 256.000 L 369.185 491.181 A 261.000 261.000 0 0 1 365.477 492.930 Z" fill="#F98A16"/>
    <path d="M 256.000 256.000 L 367.128 492.160 A 261.000 261.000 0 0 1 363.405 493.876 Z" fill="#F98B16"/>
    <path d="M 256.000 256.000 L 365.063 493.121 A 261.000 261.000 0 0 1 361.325 494.804 Z" fill="#F98C16"/>
    <path d="M 256.000 256.000 L 362.990 494.063 A 261.000 261.000 0 0 1 359.237 495.715 Z" fill="#F98D16"/>
    <path d="M 256.000 256.000 L 360.908 494.988 A 261.000 261.000 0 0 1 357.142 496.606 Z" fill="#F98E16"/>
    <path d="M 256.000 256.000 L 358.819 495.894 A 261.000 261.000 0 0 1 355.038 497.480 Z" fill="#F98E16"/>
    <path d="M 256.000 256.000 L 356.721 496.782 A 261.000 261.000 0 0 1 352.927 498.335 Z" fill="#F98F16"/>
    <path d="M 256.000 256.000 L 354.616 497.652 A 261.000 261.000 0 0 1 350.809 499.171 Z" fill="#F99016"/>
    <path d="M 256.000 256.000 L 352.504 498.504 A 261.000 261.000 0 0 1 348.683 499.990 Z" fill="#F99116"/>
    <path d="M 256.000 256.000 L 350.384 499.337 A 261.000 261.000 0 0 1 346.550 500.789 Z" fill="#F99216"/>
    <path d="M 256.000 256.000 L 348.257 500.151 A 261.000 261.000 0 0 1 344.411 501.570 Z" fill="#F99316"/>
    <path d="M 256.000 256.000 L 346.123 500.947 A 261.000 261.000 0 0 1 342.264 502.332 Z" fill="#F99416"/>
    <path d="M 256.000 256.000 L 343.982 501.724 A 261.000 261.000 0 0 1 340.111 503.075 Z" fill="#F99416"/>
    <path d="M 256.000 256.000 L 341.834 502.482 A 261.000 261.000 0 0 1 337.952 503.800 Z" fill="#F99516"/>
    <path d="M 256.000 256.000 L 339.680 503.222 A 261.000 261.000 0 0 1 335.786 504.506 Z" fill="#F99616"/>
    <path d="M 256.000 256.000 L 337.519 503.943 A 261.000 261.000 0 0 1 333.615 505.193 Z" fill="#F99716"/>
    <path d="M 256.000 256.000 L 335.353 504.645 A 261.000 261.000 0 0 1 331.437 505.860 Z" fill="#F99816"/>
    <path d="M 256.000 256.000 L 333.180 505.328 A 261.000 261.000 0 0 1 329.254 506.509 Z" fill="#F99916"/>
    <path d="M 256.000 256.000 L 331.001 505.992 A 261.000 261.000 0 0 1 327.065 507.139 Z" fill="#F99A16"/>
    <path d="M 256.000 256.000 L 328.817 506.637 A 261.000 261.000 0 0 1 324.871 507.749 Z" fill="#F99A16"/>
    <path d="M 256.000 256.000 L 326.627 507.263 A 261.000 261.000 0 0 1 322.671 508.341 Z" fill="#F99B16"/>
    <path d="M 256.000 256.000 L 324.431 507.869 A 261.000 261.000 0 0 1 320.467 508.913 Z" fill="#F99C16"/>
    <path d="M 256.000 256.000 L 322.231 508.457 A 261.000 261.000 0 0 1 318.257 509.466 Z" fill="#F99D16"/>
    <path d="M 256.000 256.000 L 320.025 509.025 A 261.000 261.000 0 0 1 316.043 510.000 Z" fill="#F99E16"/>
    <path d="M 256.000 256.000 L 317.815 509.574 A 261.000 261.000 0 0 1 313.824 510.514 Z" fill="#F99F16"/>
    <path d="M 256.000 256.000 L 315.600 510.104 A 261.000 261.000 0 0 1 311.601 511.009 Z" fill="#FAA015"/>
    <path d="M 256.000 256.000 L 313.380 510.615 A 261.000 261.000 0 0 1 309.373 511.484 Z" fill="#FAA115"/>
    <path d="M 256.000 256.000 L 311.156 511.106 A 261.000 261.000 0 0 1 307.142 511.940 Z" fill="#FAA115"/>
    <path d="M 256.000 256.000 L 308.927 511.577 A 261.000 261.000 0 0 1 304.907 512.377 Z" fill="#FAA215"/>
    <path d="M 256.000 256.000 L 306.695 512.029 A 261.000 261.000 0 0 1 302.667 512.794 Z" fill="#FAA315"/>
    <path d="M 256.000 256.000 L 304.459 512.462 A 261.000 261.000 0 0 1 300.425 513.191 Z" fill="#FAA415"/>
    <path d="M 256.000 256.000 L 302.219 512.875 A 261.000 261.000 0 0 1 298.179 513.569 Z" fill="#FAA515"/>
    <path d="M 256.000 256.000 L 299.976 513.269 A 261.000 261.000 0 0 1 295.929 513.928 Z" fill="#FAA615"/>
    <path d="M 256.000 256.000 L 297.729 513.643 A 261.000 261.000 0 0 1 293.677 514.266 Z" fill="#FAA715"/>
    <path d="M 256.000 256.000 L 295.479 513.997 A 261.000 261.000 0 0 1 291.422 514.585 Z" fill="#FAA715"/>
    <path d="M 256.000 256.000 L 293.226 514.332 A 261.000 261.000 0 0 1 289.164 514.884 Z" fill="#FAA815"/>
    <path d="M 256.000 256.000 L 290.970 514.647 A 261.000 261.000 0 0 1 286.903 515.164 Z" fill="#FAA915"/>
    <path d="M 256.000 256.000 L 288.712 514.942 A 261.000 261.000 0 0 1 284.641 515.424 Z" fill="#FAAA15"/>
    <path d="M 256.000 256.000 L 286.451 515.218 A 261.000 261.000 0 0 1 282.376 515.664 Z" fill="#FAAB15"/>
    <path d="M 256.000 256.000 L 284.188 515.473 A 261.000 261.000 0 0 1 280.109 515.884 Z" fill="#FAAC15"/>
    <path d="M 256.000 256.000 L 281.922 515.710 A 261.000 261.000 0 0 1 277.840 516.085 Z" fill="#FAAD15"/>
    <path d="M 256.000 256.000 L 279.655 515.926 A 261.000 261.000 0 0 1 275.569 516.265 Z" fill="#FAAE15"/>
    <path d="M 256.000 256.000 L 277.386 516.122 A 261.000 261.000 0 0 1 273.297 516.426 Z" fill="#FAAE15"/>
    <path d="M 256.000 256.000 L 275.115 516.299 A 261.000 261.000 0 0 1 271.024 516.567 Z" fill="#FAAF15"/>
    <path d="M 256.000 256.000 L 272.843 516.456 A 261.000 261.000 0 0 1 268.750 516.688 Z" fill="#FAB015"/>
    <path d="M 256.000 256.000 L 270.569 516.593 A 261.000 261.000 0 0 1 266.474 516.790 Z" fill="#FAB115"/>
    <path d="M 256.000 256.000 L 268.295 516.710 A 261.000 261.000 0 0 1 264.198 516.871 Z" fill="#FAB215"/>
    <path d="M 256.000 256.000 L 266.019 516.808 A 261.000 261.000 0 0 1 261.921 516.933 Z" fill="#FAB315"/>
    <path d="M 256.000 256.000 L 263.743 516.885 A 261.000 261.000 0 0 1 259.644 516.975 Z" fill="#FAB415"/>
    <path d="M 256.000 256.000 L 261.466 516.943 A 261.000 261.000 0 0 1 257.367 516.996 Z" fill="#FAB415"/>
    <path d="M 256.000 256.000 L 259.189 516.981 A 261.000 261.000 0 0 1 255.089 516.998 Z" fill="#FAB515"/>
    <path d="M 256.000 256.000 L 256.911 516.998 A 261.000 261.000 0 0 1 252.811 516.981 Z" fill="#FAB615"/>
    <path d="M 256.000 256.000 L 254.633 516.996 A 261.000 261.000 0 0 1 250.534 516.943 Z" fill="#FAB715"/>
    <path d="M 256.000 256.000 L 252.356 516.975 A 261.000 261.000 0 0 1 248.257 516.885 Z" fill="#FAB815"/>
    <path d="M 256.000 256.000 L 250.079 516.933 A 261.000 261.000 0 0 1 245.981 516.808 Z" fill="#FAB915"/>
    <path d="M 256.000 256.000 L 247.802 516.871 A 261.000 261.000 0 0 1 243.705 516.710 Z" fill="#FABA15"/>
    <path d="M 256.000 256.000 L 245.526 516.790 A 261.000 261.000 0 0 1 241.431 516.593 Z" fill="#FABB15"/>
    <path d="M 256.000 256.000 L 243.250 516.688 A 261.000 261.000 0 0 1 239.157 516.456 Z" fill="#FABB15"/>
    <path d="M 256.000 256.000 L 240.976 516.567 A 261.000 261.000 0 0 1 236.885 516.299 Z" fill="#FABC15"/>
    <path d="M 256.000 256.000 L 238.703 516.426 A 261.000 261.000 0 0 1 234.614 516.122 Z" fill="#FABD15"/>
    <path d="M 256.000 256.000 L 236.431 516.265 A 261.000 261.000 0 0 1 232.345 515.926 Z" fill="#FABE15"/>
    <path d="M 256.000 256.000 L 234.160 516.085 A 261.000 261.000 0 0 1 230.078 515.710 Z" fill="#FABF15"/>
    <path d="M 256.000 256.000 L 231.891 515.884 A 261.000 261.000 0 0 1 227.812 515.473 Z" fill="#FAC015"/>
    <path d="M 256.000 256.000 L 229.624 515.664 A 261.000 261.000 0 0 1 225.549 515.218 Z" fill="#FAC115"/>
    <path d="M 256.000 256.000 L 227.359 515.424 A 261.000 261.000 0 0 1 223.288 514.942 Z" fill="#FAC115"/>
    <path d="M 256.000 256.000 L 225.097 515.164 A 261.000 261.000 0 0 1 221.030 514.647 Z" fill="#FAC215"/>
    <path d="M 256.000 256.000 L 222.836 514.884 A 261.000 261.000 0 0 1 218.774 514.332 Z" fill="#FAC315"/>
    <path d="M 256.000 256.000 L 220.578 514.585 A 261.000 261.000 0 0 1 216.521 513.997 Z" fill="#FAC415"/>
    <path d="M 256.000 256.000 L 218.323 514.266 A 261.000 261.000 0 0 1 214.271 513.643 Z" fill="#FAC515"/>
    <path d="M 256.000 256.000 L 216.071 513.928 A 261.000 261.000 0 0 1 212.024 513.269 Z" fill="#FAC615"/>
    <path d="M 256.000 256.000 L 213.821 513.569 A 261.000 261.000 0 0 1 209.781 512.875 Z" fill="#FAC715"/>
    <path d="M 256.000 256.000 L 211.575 513.191 A 261.000 261.000 0 0 1 207.541 512.462 Z" fill="#FAC715"/>
    <path d="M 256.000 256.000 L 209.333 512.794 A 261.000 261.000 0 0 1 205.305 512.029 Z" fill="#FAC815"/>
    <path d="M 256.000 256.000 L 207.093 512.377 A 261.000 261.000 0 0 1 203.073 511.577 Z" fill="#FAC915"/>
    <path d="M 256.000 256.000 L 204.858 511.940 A 261.000 261.000 0 0 1 200.844 511.106 Z" fill="#FACA15"/>
    <path d="M 256.000 256.000 L 202.627 511.484 A 261.000 261.000 0 0 1 198.620 510.615 Z" fill="#FACB15"/>
    <path d="M 256.000 256.000 L 200.399 511.009 A 261.000 261.000 0 0 1 196.400 510.104 Z" fill="#FACC15"/>
    <path d="M 256.000 256.000 L 198.176 510.514 A 261.000 261.000 0 0 1 194.185 509.574 Z" fill="#F8CC16"/>
    <path d="M 256.000 256.000 L 195.957 510.000 A 261.000 261.000 0 0 1 191.975 509.025 Z" fill="#F6CC16"/>
    <path d="M 256.000 256.000 L 193.743 509.466 A 261.000 261.000 0 0 1 189.769 508.457 Z" fill="#F4CC17"/>
    <path d="M 256.000 256.000 L 191.533 508.913 A 261.000 261.000 0 0 1 187.569 507.869 Z" fill="#F2CC18"/>
    <path d="M 256.000 256.000 L 189.329 508.341 A 261.000 261.000 0 0 1 185.373 507.263 Z" fill="#F0CC18"/>
    <path d="M 256.000 256.000 L 187.129 507.749 A 261.000 261.000 0 0 1 183.183 506.637 Z" fill="#EECC19"/>
    <path d="M 256.000 256.000 L 184.935 507.139 A 261.000 261.000 0 0 1 180.999 505.992 Z" fill="#ECCC1A"/>
    <path d="M 256.000 256.000 L 182.746 506.509 A 261.000 261.000 0 0 1 178.820 505.328 Z" fill="#EACB1B"/>
    <path d="M 256.000 256.000 L 180.563 505.860 A 261.000 261.000 0 0 1 176.647 504.645 Z" fill="#E8CB1B"/>
    <path d="M 256.000 256.000 L 178.385 505.193 A 261.000 261.000 0 0 1 174.481 503.943 Z" fill="#E5CB1C"/>
    <path d="M 256.000 256.000 L 176.214 504.506 A 261.000 261.000 0 0 1 172.320 503.222 Z" fill="#E3CB1D"/>
    <path d="M 256.000 256.000 L 174.048 503.800 A 261.000 261.000 0 0 1 170.166 502.482 Z" fill="#E1CB1D"/>
    <path d="M 256.000 256.000 L 171.889 503.075 A 261.000 261.000 0 0 1 168.018 501.724 Z" fill="#DFCB1E"/>
    <path d="M 256.000 256.000 L 169.736 502.332 A 261.000 261.000 0 0 1 165.877 500.947 Z" fill="#DDCB1F"/>
    <path d="M 256.000 256.000 L 167.589 501.570 A 261.000 261.000 0 0 1 163.743 500.151 Z" fill="#DBCB1F"/>
    <path d="M 256.000 256.000 L 165.450 500.789 A 261.000 261.000 0 0 1 161.616 499.337 Z" fill="#D9CB20"/>
    <path d="M 256.000 256.000 L 163.317 499.990 A 261.000 261.000 0 0 1 159.496 498.504 Z" fill="#D7CB21"/>
    <path d="M 256.000 256.000 L 161.191 499.171 A 261.000 261.000 0 0 1 157.384 497.652 Z" fill="#D5CB22"/>
    <path d="M 256.000 256.000 L 159.073 498.335 A 261.000 261.000 0 0 1 155.279 496.782 Z" fill="#D3CB22"/>
    <path d="M 256.000 256.000 L 156.962 497.480 A 261.000 261.000 0 0 1 153.181 495.894 Z" fill="#D0CB23"/>
    <path d="M 256.000 256.000 L 154.858 496.606 A 261.000 261.000 0 0 1 151.092 494.988 Z" fill="#CECB24"/>
    <path d="M 256.000 256.000 L 152.763 495.715 A 261.000 261.000 0 0 1 149.010 494.063 Z" fill="#CCCB24"/>
    <path d="M 256.000 256.000 L 150.675 494.804 A 261.000 261.000 0 0 1 146.937 493.121 Z" fill="#CACA25"/>
    <path d="M 256.000 256.000 L 148.595 493.876 A 261.000 261.000 0 0 1 144.872 492.160 Z" fill="#C8CA26"/>
    <path d="M 256.000 256.000 L 146.523 492.930 A 261.000 261.000 0 0 1 142.815 491.181 Z" fill="#C6CA27"/>
    <path d="M 256.000 256.000 L 144.460 491.966 A 261.000 261.000 0 0 1 140.767 490.184 Z" fill="#C4CA27"/>
    <path d="M 256.000 256.000 L 142.405 490.983 A 261.000 261.000 0 0 1 138.728 489.170 Z" fill="#C2CA28"/>
    <path d="M 256.000 256.000 L 140.358 489.983 A 261.000 261.000 0 0 1 136.697 488.138 Z" fill="#C0CA29"/>
    <path d="M 256.000 256.000 L 138.321 488.965 A 261.000 261.000 0 0 1 134.676 487.088 Z" fill="#BECA29"/>
    <path d="M 256.000 256.000 L 136.292 487.929 A 261.000 261.000 0 0 1 132.664 486.020 Z" fill="#BBCA2A"/>
    <path d="M 256.000 256.000 L 134.273 486.876 A 261.000 261.000 0 0 1 130.662 484.935 Z" fill="#B9CA2B"/>
    <path d="M 256.000 256.000 L 132.263 485.805 A 261.000 261.000 0 0 1 128.669 483.833 Z" fill="#B7CA2C"/>
    <path d="M 256.000 256.000 L 130.262 484.716 A 261.000 261.000 0 0 1 126.685 482.713 Z" fill="#B5CA2C"/>
    <path d="M 256.000 256.000 L 128.271 483.610 A 261.000 261.000 0 0 1 124.712 481.576 Z" fill="#B3CA2D"/>
    <path d="M 256.000 256.000 L 126.290 482.487 A 261.000 261.000 0 0 1 122.748 480.421 Z" fill="#B1CA2E"/>
    <path d="M 256.000 256.000 L 124.318 481.346 A 261.000 261.000 0 0 1 120.795 479.250 Z" fill="#AFCA2E"/>
    <path d="M 256.000 256.000 L 122.357 480.189 A 261.000 261.000 0 0 1 118.852 478.062 Z" fill="#ADC92F"/>
    <path d="M 256.000 256.000 L 120.406 479.014 A 261.000 261.000 0 0 1 116.919 476.856 Z" fill="#ABC930"/>
    <path d="M 256.000 256.000 L 118.465 477.822 A 261.000 261.000 0 0 1 114.997 475.634 Z" fill="#A9C931"/>
    <path d="M 256.000 256.000 L 116.534 476.613 A 261.000 261.000 0 0 1 113.086 474.395 Z" fill="#A6C931"/>
    <path d="M 256.000 256.000 L 114.614 475.388 A 261.000 261.000 0 0 1 111.186 473.140 Z" fill="#A4C932"/>
    <path d="M 256.000 256.000 L 112.705 474.146 A 261.000 261.000 0 0 1 109.296 471.868 Z" fill="#A2C933"/>
    <path d="M 256.000 256.000 L 110.807 472.887 A 261.000 261.000 0 0 1 107.418 470.580 Z" fill="#A0C933"/>
    <path d="M 256.000 256.000 L 108.920 471.612 A 261.000 261.000 0 0 1 105.551 469.275 Z" fill="#9EC934"/>
    <path d="M 256.000 256.000 L 107.044 470.320 A 261.000 261.000 0 0 1 103.696 467.954 Z" fill="#9CC935"/>
    <path d="M 256.000 256.000 L 105.179 469.012 A 261.000 261.000 0 0 1 101.852 466.617 Z" fill="#9AC935"/>
    <path d="M 256.000 256.000 L 103.326 467.688 A 261.000 261.000 0 0 1 100.020 465.263 Z" fill="#98C936"/>
    <path d="M 256.000 256.000 L 101.485 466.347 A 261.000 261.000 0 0 1 98.200 463.894 Z" fill="#96C937"/>
    <path d="M 256.000 256.000 L 99.655 464.991 A 261.000 261.000 0 0 1 96.391 462.509 Z" fill="#94C938"/>
    <path d="M 256.000 256.000 L 97.837 463.619 A 261.000 261.000 0 0 1 94.595 461.109 Z" fill="#91C938"/>
    <path d="M 256.000 256.000 L 96.031 462.230 A 261.000 261.000 0 0 1 92.812 459.692 Z" fill="#8FC939"/>
    <path d="M 256.000 256.000 L 94.238 460.827 A 261.000 261.000 0 0 1 91.040 458.261 Z" fill="#8DC83A"/>
    <path d="M 256.000 256.000 L 92.456 459.407 A 261.000 261.000 0 0 1 89.282 456.813 Z" fill="#8BC83A"/>
    <path d="M 256.000 256.000 L 90.688 457.972 A 261.000 261.000 0 0 1 87.536 455.351 Z" fill="#89C83B"/>
    <path d="M 256.000 256.000 L 88.931 456.522 A 261.000 261.000 0 0 1 85.802 453.873 Z" fill="#87C83C"/>
    <path d="M 256.000 256.000 L 87.188 455.056 A 261.000 261.000 0 0 1 84.082 452.380 Z" fill="#85C83D"/>
    <path d="M 256.000 256.000 L 85.457 453.576 A 261.000 261.000 0 0 1 82.375 450.873 Z" fill="#83C83D"/>
    <path d="M 256.000 256.000 L 83.740 452.080 A 261.000 261.000 0 0 1 80.681 449.350 Z" fill="#81C83E"/>
    <path d="M 256.000 256.000 L 82.035 450.569 A 261.000 261.000 0 0 1 79.000 447.813 Z" fill="#7FC83F"/>
    <path d="M 256.000 256.000 L 80.344 449.044 A 261.000 261.000 0 0 1 77.333 446.261 Z" fill="#7CC83F"/>
    <path d="M 256.000 256.000 L 78.666 447.503 A 261.000 261.000 0 0 1 75.680 444.694 Z" fill="#7AC840"/>
    <path d="M 256.000 256.000 L 77.001 445.949 A 261.000 261.000 0 0 1 74.040 443.114 Z" fill="#78C841"/>
    <path d="M 256.000 256.000 L 75.351 444.379 A 261.000 261.000 0 0 1 72.414 441.519 Z" fill="#76C842"/>
    <path d="M 256.000 256.000 L 73.714 442.796 A 261.000 261.000 0 0 1 70.802 439.910 Z" fill="#74C842"/>
    <path d="M 256.000 256.000 L 72.090 441.198 A 261.000 261.000 0 0 1 69.204 438.286 Z" fill="#72C843"/>
    <path d="M 256.000 256.000 L 70.481 439.586 A 261.000 261.000 0 0 1 67.621 436.649 Z" fill="#70C844"/>
    <path d="M 256.000 256.000 L 68.886 437.960 A 261.000 261.000 0 0 1 66.051 434.999 Z" fill="#6EC744"/>
    <path d="M 256.000 256.000 L 67.306 436.320 A 261.000 261.000 0 0 1 64.497 433.334 Z" fill="#6CC745"/>
    <path d="M 256.000 256.000 L 65.739 434.667 A 261.000 261.000 0 0 1 62.956 431.656 Z" fill="#6AC746"/>
    <path d="M 256.000 256.000 L 64.187 433.000 A 261.000 261.000 0 0 1 61.431 429.965 Z" fill="#67C747"/>
    <path d="M 256.000 256.000 L 62.650 431.319 A 261.000 261.000 0 0 1 59.920 428.260 Z" fill="#65C747"/>
    <path d="M 256.000 256.000 L 61.127 429.625 A 261.000 261.000 0 0 1 58.424 426.543 Z" fill="#63C748"/>
    <path d="M 256.000 256.000 L 59.620 427.918 A 261.000 261.000 0 0 1 56.944 424.812 Z" fill="#61C749"/>
    <path d="M 256.000 256.000 L 58.127 426.198 A 261.000 261.000 0 0 1 55.478 423.069 Z" fill="#5FC749"/>
    <path d="M 256.000 256.000 L 56.649 424.464 A 261.000 261.000 0 0 1 54.028 421.312 Z" fill="#5DC74A"/>
    <path d="M 256.000 256.000 L 55.187 422.718 A 261.000 261.000 0 0 1 52.593 419.544 Z" fill="#5BC74B"/>
    <path d="M 256.000 256.000 L 53.739 420.960 A 261.000 261.000 0 0 1 51.173 417.762 Z" fill="#59C74B"/>
    <path d="M 256.000 256.000 L 52.308 419.188 A 261.000 261.000 0 0 1 49.770 415.969 Z" fill="#57C74C"/>
    <path d="M 256.000 256.000 L 50.891 417.405 A 261.000 261.000 0 0 1 48.381 414.163 Z" fill="#55C74D"/>
    <path d="M 256.000 256.000 L 49.491 415.609 A 261.000 261.000 0 0 1 47.009 412.345 Z" fill="#52C74E"/>
    <path d="M 256.000 256.000 L 48.106 413.800 A 261.000 261.000 0 0 1 45.653 410.515 Z" fill="#50C74E"/>
    <path d="M 256.000 256.000 L 46.737 411.980 A 261.000 261.000 0 0 1 44.312 408.674 Z" fill="#4EC64F"/>
    <path d="M 256.000 256.000 L 45.383 410.148 A 261.000 261.000 0 0 1 42.988 406.821 Z" fill="#4CC650"/>
    <path d="M 256.000 256.000 L 44.046 408.304 A 261.000 261.000 0 0 1 41.680 404.956 Z" fill="#4AC650"/>
    <path d="M 256.000 256.000 L 42.725 406.449 A 261.000 261.000 0 0 1 40.388 403.080 Z" fill="#48C651"/>
    <path d="M 256.000 256.000 L 41.420 404.582 A 261.000 261.000 0 0 1 39.113 401.193 Z" fill="#46C652"/>
    <path d="M 256.000 256.000 L 40.132 402.704 A 261.000 261.000 0 0 1 37.854 399.295 Z" fill="#44C653"/>
    <path d="M 256.000 256.000 L 38.860 400.814 A 261.000 261.000 0 0 1 36.612 397.386 Z" fill="#42C653"/>
    <path d="M 256.000 256.000 L 37.605 398.914 A 261.000 261.000 0 0 1 35.387 395.466 Z" fill="#40C654"/>
    <path d="M 256.000 256.000 L 36.366 397.003 A 261.000 261.000 0 0 1 34.178 393.535 Z" fill="#3DC655"/>
    <path d="M 256.000 256.000 L 35.144 395.081 A 261.000 261.000 0 0 1 32.986 391.594 Z" fill="#3BC655"/>
    <path d="M 256.000 256.000 L 33.938 393.148 A 261.000 261.000 0 0 1 31.811 389.643 Z" fill="#39C656"/>
    <path d="M 256.000 256.000 L 32.750 391.205 A 261.000 261.000 0 0 1 30.654 387.682 Z" fill="#37C657"/>
    <path d="M 256.000 256.000 L 31.579 389.252 A 261.000 261.000 0 0 1 29.513 385.710 Z" fill="#35C658"/>
    <path d="M 256.000 256.000 L 30.424 387.288 A 261.000 261.000 0 0 1 28.390 383.729 Z" fill="#33C658"/>
    <path d="M 256.000 256.000 L 29.287 385.315 A 261.000 261.000 0 0 1 27.284 381.738 Z" fill="#31C559"/>
    <path d="M 256.000 256.000 L 28.167 383.331 A 261.000 261.000 0 0 1 26.195 379.737 Z" fill="#2FC55A"/>
    <path d="M 256.000 256.000 L 27.065 381.338 A 261.000 261.000 0 0 1 25.124 377.727 Z" fill="#2DC55A"/>
    <path d="M 256.000 256.000 L 25.980 379.336 A 261.000 261.000 0 0 1 24.071 375.708 Z" fill="#2BC55B"/>
    <path d="M 256.000 256.000 L 24.912 377.324 A 261.000 261.000 0 0 1 23.035 373.679 Z" fill="#28C55C"/>
    <path d="M 256.000 256.000 L 23.862 375.303 A 261.000 261.000 0 0 1 22.017 371.642 Z" fill="#26C55D"/>
    <path d="M 256.000 256.000 L 22.830 373.272 A 261.000 261.000 0 0 1 21.017 369.595 Z" fill="#24C55D"/>
    <path d="M 256.000 256.000 L 21.816 371.233 A 261.000 261.000 0 0 1 20.034 367.540 Z" fill="#22C55E"/>
    <path d="M 256.000 256.000 L 20.819 369.185 A 261.000 261.000 0 0 1 19.070 365.477 Z" fill="#22C55F"/>
    <path d="M 256.000 256.000 L 19.840 367.128 A 261.000 261.000 0 0 1 18.124 363.405 Z" fill="#21C560"/>
    <path d="M 256.000 256.000 L 18.879 365.063 A 261.000 261.000 0 0 1 17.196 361.325 Z" fill="#21C561"/>
    <path d="M 256.000 256.000 L 17.937 362.990 A 261.000 261.000 0 0 1 16.285 359.237 Z" fill="#21C463"/>
    <path d="M 256.000 256.000 L 17.012 360.908 A 261.000 261.000 0 0 1 15.394 357.142 Z" fill="#21C464"/>
    <path d="M 256.000 256.000 L 16.106 358.819 A 261.000 261.000 0 0 1 14.520 355.038 Z" fill="#20C465"/>
    <path d="M 256.000 256.000 L 15.218 356.721 A 261.000 261.000 0 0 1 13.665 352.927 Z" fill="#20C466"/>
    <path d="M 256.000 256.000 L 14.348 354.616 A 261.000 261.000 0 0 1 12.829 350.809 Z" fill="#20C467"/>
    <path d="M 256.000 256.000 L 13.496 352.504 A 261.000 261.000 0 0 1 12.010 348.683 Z" fill="#20C468"/>
    <path d="M 256.000 256.000 L 12.663 350.384 A 261.000 261.000 0 0 1 11.211 346.550 Z" fill="#1FC469"/>
    <path d="M 256.000 256.000 L 11.849 348.257 A 261.000 261.000 0 0 1 10.430 344.411 Z" fill="#1FC36B"/>
    <path d="M 256.000 256.000 L 11.053 346.123 A 261.000 261.000 0 0 1 9.668 342.264 Z" fill="#1FC36C"/>
    <path d="M 256.000 256.000 L 10.276 343.982 A 261.000 261.000 0 0 1 8.925 340.111 Z" fill="#1EC36D"/>
    <path d="M 256.000 256.000 L 9.518 341.834 A 261.000 261.000 0 0 1 8.200 337.952 Z" fill="#1EC36E"/>
    <path d="M 256.000 256.000 L 8.778 339.680 A 261.000 261.000 0 0 1 7.494 335.786 Z" fill="#1EC36F"/>
    <path d="M 256.000 256.000 L 8.057 337.519 A 261.000 261.000 0 0 1 6.807 333.615 Z" fill="#1EC370"/>
    <path d="M 256.000 256.000 L 7.355 335.353 A 261.000 261.000 0 0 1 6.140 331.437 Z" fill="#1DC371"/>
    <path d="M 256.000 256.000 L 6.672 333.180 A 261.000 261.000 0 0 1 5.491 329.254 Z" fill="#1DC273"/>
    <path d="M 256.000 256.000 L 6.008 331.001 A 261.000 261.000 0 0 1 4.861 327.065 Z" fill="#1DC274"/>
    <path d="M 256.000 256.000 L 5.363 328.817 A 261.000 261.000 0 0 1 4.251 324.871 Z" fill="#1DC275"/>
    <path d="M 256.000 256.000 L 4.737 326.627 A 261.000 261.000 0 0 1 3.659 322.671 Z" fill="#1CC276"/>
    <path d="M 256.000 256.000 L 4.131 324.431 A 261.000 261.000 0 0 1 3.087 320.467 Z" fill="#1CC277"/>
    <path d="M 256.000 256.000 L 3.543 322.231 A 261.000 261.000 0 0 1 2.534 318.257 Z" fill="#1CC278"/>
    <path d="M 256.000 256.000 L 2.975 320.025 A 261.000 261.000 0 0 1 2.000 316.043 Z" fill="#1BC279"/>
    <path d="M 256.000 256.000 L 2.426 317.815 A 261.000 261.000 0 0 1 1.486 313.824 Z" fill="#1BC17B"/>
    <path d="M 256.000 256.000 L 1.896 315.600 A 261.000 261.000 0 0 1 0.991 311.601 Z" fill="#1BC17C"/>
    <path d="M 256.000 256.000 L 1.385 313.380 A 261.000 261.000 0 0 1 0.516 309.373 Z" fill="#1BC17D"/>
    <path d="M 256.000 256.000 L 0.894 311.156 A 261.000 261.000 0 0 1 0.060 307.142 Z" fill="#1AC17E"/>
    <path d="M 256.000 256.000 L 0.423 308.927 A 261.000 261.000 0 0 1 -0.377 304.907 Z" fill="#1AC17F"/>
    <path d="M 256.000 256.000 L -0.029 306.695 A 261.000 261.000 0 0 1 -0.794 302.667 Z" fill="#1AC180"/>
    <path d="M 256.000 256.000 L -0.462 304.459 A 261.000 261.000 0 0 1 -1.191 300.425 Z" fill="#1AC081"/>
    <path d="M 256.000 256.000 L -0.875 302.219 A 261.000 261.000 0 0 1 -1.569 298.179 Z" fill="#19C083"/>
    <path d="M 256.000 256.000 L -1.269 299.976 A 261.000 261.000 0 0 1 -1.928 295.929 Z" fill="#19C084"/>
    <path d="M 256.000 256.000 L -1.643 297.729 A 261.000 261.000 0 0 1 -2.266 293.677 Z" fill="#19C085"/>
    <path d="M 256.000 256.000 L -1.997 295.479 A 261.000 261.000 0 0 1 -2.585 291.422 Z" fill="#18C086"/>
    <path d="M 256.000 256.000 L -2.332 293.226 A 261.000 261.000 0 0 1 -2.884 289.164 Z" fill="#18C087"/>
    <path d="M 256.000 256.000 L -2.647 290.970 A 261.000 261.000 0 0 1 -3.164 286.903 Z" fill="#18C088"/>
    <path d="M 256.000 256.000 L -2.942 288.712 A 261.000 261.000 0 0 1 -3.424 284.641 Z" fill="#18BF8A"/>
    <path d="M 256.000 256.000 L -3.218 286.451 A 261.000 261.000 0 0 1 -3.664 282.376 Z" fill="#17BF8B"/>
    <path d="M 256.000 256.000 L -3.473 284.188 A 261.000 261.000 0 0 1 -3.884 280.109 Z" fill="#17BF8C"/>
    <path d="M 256.000 256.000 L -3.710 281.922 A 261.000 261.000 0 0 1 -4.085 277.840 Z" fill="#17BF8D"/>
    <path d="M 256.000 256.000 L -3.926 279.655 A 261.000 261.000 0 0 1 -4.265 275.569 Z" fill="#17BF8E"/>
    <path d="M 256.000 256.000 L -4.122 277.386 A 261.000 261.000 0 0 1 -4.426 273.297 Z" fill="#16BF8F"/>
    <path d="M 256.000 256.000 L -4.299 275.115 A 261.000 261.000 0 0 1 -4.567 271.024 Z" fill="#16BF90"/>
    <path d="M 256.000 256.000 L -4.456 272.843 A 261.000 261.000 0 0 1 -4.688 268.750 Z" fill="#16BE92"/>
    <path d="M 256.000 256.000 L -4.593 270.569 A 261.000 261.000 0 0 1 -4.790 266.474 Z" fill="#15BE93"/>
    <path d="M 256.000 256.000 L -4.710 268.295 A 261.000 261.000 0 0 1 -4.871 264.198 Z" fill="#15BE94"/>
    <path d="M 256.000 256.000 L -4.808 266.019 A 261.000 261.000 0 0 1 -4.933 261.921 Z" fill="#15BE95"/>
    <path d="M 256.000 256.000 L -4.885 263.743 A 261.000 261.000 0 0 1 -4.975 259.644 Z" fill="#15BE96"/>
    <path d="M 256.000 256.000 L -4.943 261.466 A 261.000 261.000 0 0 1 -4.996 257.367 Z" fill="#14BE97"/>
    <path d="M 256.000 256.000 L -4.981 259.189 A 261.000 261.000 0 0 1 -4.998 255.089 Z" fill="#14BE98"/>
    <path d="M 256.000 256.000 L -4.998 256.911 A 261.000 261.000 0 0 1 -4.981 252.811 Z" fill="#14BD9A"/>
    <path d="M 256.000 256.000 L -4.996 254.633 A 261.000 261.000 0 0 1 -4.943 250.534 Z" fill="#14BD9B"/>
    <path d="M 256.000 256.000 L -4.975 252.356 A 261.000 261.000 0 0 1 -4.885 248.257 Z" fill="#13BD9C"/>
    <path d="M 256.000 256.000 L -4.933 250.079 A 261.000 261.000 0 0 1 -4.808 245.981 Z" fill="#13BD9D"/>
    <path d="M 256.000 256.000 L -4.871 247.802 A 261.000 261.000 0 0 1 -4.710 243.705 Z" fill="#13BD9E"/>
    <path d="M 256.000 256.000 L -4.790 245.526 A 261.000 261.000 0 0 1 -4.593 241.431 Z" fill="#13BD9F"/>
    <path d="M 256.000 256.000 L -4.688 243.250 A 261.000 261.000 0 0 1 -4.456 239.157 Z" fill="#12BDA0"/>
    <path d="M 256.000 256.000 L -4.567 240.976 A 261.000 261.000 0 0 1 -4.299 236.885 Z" fill="#12BCA2"/>
    <path d="M 256.000 256.000 L -4.426 238.703 A 261.000 261.000 0 0 1 -4.122 234.614 Z" fill="#12BCA3"/>
    <path d="M 256.000 256.000 L -4.265 236.431 A 261.000 261.000 0 0 1 -3.926 232.345 Z" fill="#11BCA4"/>
    <path d="M 256.000 256.000 L -4.085 234.160 A 261.000 261.000 0 0 1 -3.710 230.078 Z" fill="#11BCA5"/>
    <path d="M 256.000 256.000 L -3.884 231.891 A 261.000 261.000 0 0 1 -3.473 227.812 Z" fill="#11BCA6"/>
    <path d="M 256.000 256.000 L -3.664 229.624 A 261.000 261.000 0 0 1 -3.218 225.549 Z" fill="#11BCA7"/>
    <path d="M 256.000 256.000 L -3.424 227.359 A 261.000 261.000 0 0 1 -2.942 223.288 Z" fill="#10BCA8"/>
    <path d="M 256.000 256.000 L -3.164 225.097 A 261.000 261.000 0 0 1 -2.647 221.030 Z" fill="#10BBAA"/>
    <path d="M 256.000 256.000 L -2.884 222.836 A 261.000 261.000 0 0 1 -2.332 218.774 Z" fill="#10BBAB"/>
    <path d="M 256.000 256.000 L -2.585 220.578 A 261.000 261.000 0 0 1 -1.997 216.521 Z" fill="#10BBAC"/>
    <path d="M 256.000 256.000 L -2.266 218.323 A 261.000 261.000 0 0 1 -1.643 214.271 Z" fill="#0FBBAD"/>
    <path d="M 256.000 256.000 L -1.928 216.071 A 261.000 261.000 0 0 1 -1.269 212.024 Z" fill="#0FBBAE"/>
    <path d="M 256.000 256.000 L -1.569 213.821 A 261.000 261.000 0 0 1 -0.875 209.781 Z" fill="#0FBBAF"/>
    <path d="M 256.000 256.000 L -1.191 211.575 A 261.000 261.000 0 0 1 -0.462 207.541 Z" fill="#0EBBB1"/>
    <path d="M 256.000 256.000 L -0.794 209.333 A 261.000 261.000 0 0 1 -0.029 205.305 Z" fill="#0EBAB2"/>
    <path d="M 256.000 256.000 L -0.377 207.093 A 261.000 261.000 0 0 1 0.423 203.073 Z" fill="#0EBAB3"/>
    <path d="M 256.000 256.000 L 0.060 204.858 A 261.000 261.000 0 0 1 0.894 200.844 Z" fill="#0EBAB4"/>
    <path d="M 256.000 256.000 L 0.516 202.627 A 261.000 261.000 0 0 1 1.385 198.620 Z" fill="#0DBAB5"/>
    <path d="M 256.000 256.000 L 0.991 200.399 A 261.000 261.000 0 0 1 1.896 196.400 Z" fill="#0DBAB6"/>
    <path d="M 256.000 256.000 L 1.486 198.176 A 261.000 261.000 0 0 1 2.426 194.185 Z" fill="#0DBAB7"/>
    <path d="M 256.000 256.000 L 2.000 195.957 A 261.000 261.000 0 0 1 2.975 191.975 Z" fill="#0DB9B9"/>
    <path d="M 256.000 256.000 L 2.534 193.743 A 261.000 261.000 0 0 1 3.543 189.769 Z" fill="#0CB9BA"/>
    <path d="M 256.000 256.000 L 3.087 191.533 A 261.000 261.000 0 0 1 4.131 187.569 Z" fill="#0CB9BB"/>
    <path d="M 256.000 256.000 L 3.659 189.329 A 261.000 261.000 0 0 1 4.737 185.373 Z" fill="#0CB9BC"/>
    <path d="M 256.000 256.000 L 4.251 187.129 A 261.000 261.000 0 0 1 5.363 183.183 Z" fill="#0BB9BD"/>
    <path d="M 256.000 256.000 L 4.861 184.935 A 261.000 261.000 0 0 1 6.008 180.999 Z" fill="#0BB9BE"/>
    <path d="M 256.000 256.000 L 5.491 182.746 A 261.000 261.000 0 0 1 6.672 178.820 Z" fill="#0BB9BF"/>
    <path d="M 256.000 256.000 L 6.140 180.563 A 261.000 261.000 0 0 1 7.355 176.647 Z" fill="#0BB8C1"/>
    <path d="M 256.000 256.000 L 6.807 178.385 A 261.000 261.000 0 0 1 8.057 174.481 Z" fill="#0AB8C2"/>
    <path d="M 256.000 256.000 L 7.494 176.214 A 261.000 261.000 0 0 1 8.778 172.320 Z" fill="#0AB8C3"/>
    <path d="M 256.000 256.000 L 8.200 174.048 A 261.000 261.000 0 0 1 9.518 170.166 Z" fill="#0AB8C4"/>
    <path d="M 256.000 256.000 L 8.925 171.889 A 261.000 261.000 0 0 1 10.276 168.018 Z" fill="#0AB8C5"/>
    <path d="M 256.000 256.000 L 9.668 169.736 A 261.000 261.000 0 0 1 11.053 165.877 Z" fill="#09B8C6"/>
    <path d="M 256.000 256.000 L 10.430 167.589 A 261.000 261.000 0 0 1 11.849 163.743 Z" fill="#09B8C7"/>
    <path d="M 256.000 256.000 L 11.211 165.450 A 261.000 261.000 0 0 1 12.663 161.616 Z" fill="#09B7C9"/>
    <path d="M 256.000 256.000 L 12.010 163.317 A 261.000 261.000 0 0 1 13.496 159.496 Z" fill="#08B7CA"/>
    <path d="M 256.000 256.000 L 12.829 161.191 A 261.000 261.000 0 0 1 14.348 157.384 Z" fill="#08B7CB"/>
    <path d="M 256.000 256.000 L 13.665 159.073 A 261.000 261.000 0 0 1 15.218 155.279 Z" fill="#08B7CC"/>
    <path d="M 256.000 256.000 L 14.520 156.962 A 261.000 261.000 0 0 1 16.106 153.181 Z" fill="#08B7CD"/>
    <path d="M 256.000 256.000 L 15.394 154.858 A 261.000 261.000 0 0 1 17.012 151.092 Z" fill="#07B7CE"/>
    <path d="M 256.000 256.000 L 16.285 152.763 A 261.000 261.000 0 0 1 17.937 149.010 Z" fill="#07B7CF"/>
    <path d="M 256.000 256.000 L 17.196 150.675 A 261.000 261.000 0 0 1 18.879 146.937 Z" fill="#07B6D1"/>
    <path d="M 256.000 256.000 L 18.124 148.595 A 261.000 261.000 0 0 1 19.840 144.872 Z" fill="#07B6D2"/>
    <path d="M 256.000 256.000 L 19.070 146.523 A 261.000 261.000 0 0 1 20.819 142.815 Z" fill="#06B6D3"/>
    <path d="M 256.000 256.000 L 20.034 144.460 A 261.000 261.000 0 0 1 21.816 140.767 Z" fill="#06B6D4"/>
    <path d="M 256.000 256.000 L 21.017 142.405 A 261.000 261.000 0 0 1 22.830 138.728 Z" fill="#07B5D4"/>
    <path d="M 256.000 256.000 L 22.017 140.358 A 261.000 261.000 0 0 1 23.862 136.697 Z" fill="#07B5D5"/>
    <path d="M 256.000 256.000 L 23.035 138.321 A 261.000 261.000 0 0 1 24.912 134.676 Z" fill="#08B4D5"/>
    <path d="M 256.000 256.000 L 24.071 136.292 A 261.000 261.000 0 0 1 25.980 132.664 Z" fill="#08B4D5"/>
    <path d="M 256.000 256.000 L 25.124 134.273 A 261.000 261.000 0 0 1 27.065 130.662 Z" fill="#09B3D6"/>
    <path d="M 256.000 256.000 L 26.195 132.263 A 261.000 261.000 0 0 1 28.167 128.669 Z" fill="#09B3D6"/>
    <path d="M 256.000 256.000 L 27.284 130.262 A 261.000 261.000 0 0 1 29.287 126.685 Z" fill="#0AB2D6"/>
    <path d="M 256.000 256.000 L 28.390 128.271 A 261.000 261.000 0 0 1 30.424 124.712 Z" fill="#0AB2D7"/>
    <path d="M 256.000 256.000 L 29.513 126.290 A 261.000 261.000 0 0 1 31.579 122.748 Z" fill="#0BB1D7"/>
    <path d="M 256.000 256.000 L 30.654 124.318 A 261.000 261.000 0 0 1 32.750 120.795 Z" fill="#0BB1D7"/>
    <path d="M 256.000 256.000 L 31.811 122.357 A 261.000 261.000 0 0 1 33.938 118.852 Z" fill="#0CB0D8"/>
    <path d="M 256.000 256.000 L 32.986 120.406 A 261.000 261.000 0 0 1 35.144 116.919 Z" fill="#0CB0D8"/>
    <path d="M 256.000 256.000 L 34.178 118.465 A 261.000 261.000 0 0 1 36.366 114.997 Z" fill="#0DAFD8"/>
    <path d="M 256.000 256.000 L 35.387 116.534 A 261.000 261.000 0 0 1 37.605 113.086 Z" fill="#0DAFD9"/>
    <path d="M 256.000 256.000 L 36.612 114.614 A 261.000 261.000 0 0 1 38.860 111.186 Z" fill="#0EAED9"/>
    <path d="M 256.000 256.000 L 37.854 112.705 A 261.000 261.000 0 0 1 40.132 109.296 Z" fill="#0EAED9"/>
    <path d="M 256.000 256.000 L 39.113 110.807 A 261.000 261.000 0 0 1 41.420 107.418 Z" fill="#0FADDA"/>
    <path d="M 256.000 256.000 L 40.388 108.920 A 261.000 261.000 0 0 1 42.725 105.551 Z" fill="#0FADDA"/>
    <path d="M 256.000 256.000 L 41.680 107.044 A 261.000 261.000 0 0 1 44.046 103.696 Z" fill="#10ACDA"/>
    <path d="M 256.000 256.000 L 42.988 105.179 A 261.000 261.000 0 0 1 45.383 101.852 Z" fill="#10ACDB"/>
    <path d="M 256.000 256.000 L 44.312 103.326 A 261.000 261.000 0 0 1 46.737 100.020 Z" fill="#11ABDB"/>
    <path d="M 256.000 256.000 L 45.653 101.485 A 261.000 261.000 0 0 1 48.106 98.200 Z" fill="#11ABDB"/>
    <path d="M 256.000 256.000 L 47.009 99.655 A 261.000 261.000 0 0 1 49.491 96.391 Z" fill="#12AADC"/>
    <path d="M 256.000 256.000 L 48.381 97.837 A 261.000 261.000 0 0 1 50.891 94.595 Z" fill="#12AADC"/>
    <path d="M 256.000 256.000 L 49.770 96.031 A 261.000 261.000 0 0 1 52.308 92.812 Z" fill="#13A9DC"/>
    <path d="M 256.000 256.000 L 51.173 94.238 A 261.000 261.000 0 0 1 53.739 91.040 Z" fill="#13A9DD"/>
    <path d="M 256.000 256.000 L 52.593 92.456 A 261.000 261.000 0 0 1 55.187 89.282 Z" fill="#14A8DD"/>
    <path d="M 256.000 256.000 L 54.028 90.688 A 261.000 261.000 0 0 1 56.649 87.536 Z" fill="#14A8DD"/>
    <path d="M 256.000 256.000 L 55.478 88.931 A 261.000 261.000 0 0 1 58.127 85.802 Z" fill="#15A7DE"/>
    <path d="M 256.000 256.000 L 56.944 87.188 A 261.000 261.000 0 0 1 59.620 84.082 Z" fill="#15A7DE"/>
    <path d="M 256.000 256.000 L 58.424 85.457 A 261.000 261.000 0 0 1 61.127 82.375 Z" fill="#16A6DE"/>
    <path d="M 256.000 256.000 L 59.920 83.740 A 261.000 261.000 0 0 1 62.650 80.681 Z" fill="#17A6DF"/>
    <path d="M 256.000 256.000 L 61.431 82.035 A 261.000 261.000 0 0 1 64.187 79.000 Z" fill="#17A5DF"/>
    <path d="M 256.000 256.000 L 62.956 80.344 A 261.000 261.000 0 0 1 65.739 77.333 Z" fill="#18A5DF"/>
    <path d="M 256.000 256.000 L 64.497 78.666 A 261.000 261.000 0 0 1 67.306 75.680 Z" fill="#18A4E0"/>
    <path d="M 256.000 256.000 L 66.051 77.001 A 261.000 261.000 0 0 1 68.886 74.040 Z" fill="#19A4E0"/>
    <path d="M 256.000 256.000 L 67.621 75.351 A 261.000 261.000 0 0 1 70.481 72.414 Z" fill="#19A3E0"/>
    <path d="M 256.000 256.000 L 69.204 73.714 A 261.000 261.000 0 0 1 72.090 70.802 Z" fill="#1AA3E1"/>
    <path d="M 256.000 256.000 L 70.802 72.090 A 261.000 261.000 0 0 1 73.714 69.204 Z" fill="#1AA2E1"/>
    <path d="M 256.000 256.000 L 72.414 70.481 A 261.000 261.000 0 0 1 75.351 67.621 Z" fill="#1BA2E1"/>
    <path d="M 256.000 256.000 L 74.040 68.886 A 261.000 261.000 0 0 1 77.001 66.051 Z" fill="#1BA1E2"/>
    <path d="M 256.000 256.000 L 75.680 67.306 A 261.000 261.000 0 0 1 78.666 64.497 Z" fill="#1CA1E2"/>
    <path d="M 256.000 256.000 L 77.333 65.739 A 261.000 261.000 0 0 1 80.344 62.956 Z" fill="#1CA0E2"/>
    <path d="M 256.000 256.000 L 79.000 64.187 A 261.000 261.000 0 0 1 82.035 61.431 Z" fill="#1DA0E3"/>
    <path d="M 256.000 256.000 L 80.681 62.650 A 261.000 261.000 0 0 1 83.740 59.920 Z" fill="#1D9FE3"/>
    <path d="M 256.000 256.000 L 82.375 61.127 A 261.000 261.000 0 0 1 85.457 58.424 Z" fill="#1E9FE3"/>
    <path d="M 256.000 256.000 L 84.082 59.620 A 261.000 261.000 0 0 1 87.188 56.944 Z" fill="#1E9EE4"/>
    <path d="M 256.000 256.000 L 85.802 58.127 A 261.000 261.000 0 0 1 88.931 55.478 Z" fill="#1F9EE4"/>
    <path d="M 256.000 256.000 L 87.536 56.649 A 261.000 261.000 0 0 1 90.688 54.028 Z" fill="#1F9DE4"/>
    <path d="M 256.000 256.000 L 89.282 55.187 A 261.000 261.000 0 0 1 92.456 52.593 Z" fill="#209DE5"/>
    <path d="M 256.000 256.000 L 91.040 53.739 A 261.000 261.000 0 0 1 94.238 51.173 Z" fill="#209CE5"/>
    <path d="M 256.000 256.000 L 92.812 52.308 A 261.000 261.000 0 0 1 96.031 49.770 Z" fill="#219CE5"/>
    <path d="M 256.000 256.000 L 94.595 50.891 A 261.000 261.000 0 0 1 97.837 48.381 Z" fill="#219BE6"/>
    <path d="M 256.000 256.000 L 96.391 49.491 A 261.000 261.000 0 0 1 99.655 47.009 Z" fill="#229BE6"/>
    <path d="M 256.000 256.000 L 98.200 48.106 A 261.000 261.000 0 0 1 101.485 45.653 Z" fill="#229AE6"/>
    <path d="M 256.000 256.000 L 100.020 46.737 A 261.000 261.000 0 0 1 103.326 44.312 Z" fill="#239AE7"/>
    <path d="M 256.000 256.000 L 101.852 45.383 A 261.000 261.000 0 0 1 105.179 42.988 Z" fill="#2399E7"/>
    <path d="M 256.000 256.000 L 103.696 44.046 A 261.000 261.000 0 0 1 107.044 41.680 Z" fill="#2499E7"/>
    <path d="M 256.000 256.000 L 105.551 42.725 A 261.000 261.000 0 0 1 108.920 40.388 Z" fill="#2498E8"/>
    <path d="M 256.000 256.000 L 107.418 41.420 A 261.000 261.000 0 0 1 110.807 39.113 Z" fill="#2598E8"/>
    <path d="M 256.000 256.000 L 109.296 40.132 A 261.000 261.000 0 0 1 112.705 37.854 Z" fill="#2597E8"/>
    <path d="M 256.000 256.000 L 111.186 38.860 A 261.000 261.000 0 0 1 114.614 36.612 Z" fill="#2697E9"/>
    <path d="M 256.000 256.000 L 113.086 37.605 A 261.000 261.000 0 0 1 116.534 35.387 Z" fill="#2696E9"/>
    <path d="M 256.000 256.000 L 114.997 36.366 A 261.000 261.000 0 0 1 118.465 34.178 Z" fill="#2796E9"/>
    <path d="M 256.000 256.000 L 116.919 35.144 A 261.000 261.000 0 0 1 120.406 32.986 Z" fill="#2895EA"/>
    <path d="M 256.000 256.000 L 118.852 33.938 A 261.000 261.000 0 0 1 122.357 31.811 Z" fill="#2895EA"/>
    <path d="M 256.000 256.000 L 120.795 32.750 A 261.000 261.000 0 0 1 124.318 30.654 Z" fill="#2994EA"/>
    <path d="M 256.000 256.000 L 122.748 31.579 A 261.000 261.000 0 0 1 126.290 29.513 Z" fill="#2994EB"/>
    <path d="M 256.000 256.000 L 124.712 30.424 A 261.000 261.000 0 0 1 128.271 28.390 Z" fill="#2A93EB"/>
    <path d="M 256.000 256.000 L 126.685 29.287 A 261.000 261.000 0 0 1 130.262 27.284 Z" fill="#2A93EB"/>
    <path d="M 256.000 256.000 L 128.669 28.167 A 261.000 261.000 0 0 1 132.263 26.195 Z" fill="#2B92EB"/>
    <path d="M 256.000 256.000 L 130.662 27.065 A 261.000 261.000 0 0 1 134.273 25.124 Z" fill="#2B92EC"/>
    <path d="M 256.000 256.000 L 132.664 25.980 A 261.000 261.000 0 0 1 136.292 24.071 Z" fill="#2C91EC"/>
    <path d="M 256.000 256.000 L 134.676 24.912 A 261.000 261.000 0 0 1 138.321 23.035 Z" fill="#2C91EC"/>
    <path d="M 256.000 256.000 L 136.697 23.862 A 261.000 261.000 0 0 1 140.358 22.017 Z" fill="#2D90ED"/>
    <path d="M 256.000 256.000 L 138.728 22.830 A 261.000 261.000 0 0 1 142.405 21.017 Z" fill="#2D90ED"/>
    <path d="M 256.000 256.000 L 140.767 21.816 A 261.000 261.000 0 0 1 144.460 20.034 Z" fill="#2E8FED"/>
    <path d="M 256.000 256.000 L 142.815 20.819 A 261.000 261.000 0 0 1 146.523 19.070 Z" fill="#2E8FEE"/>
    <path d="M 256.000 256.000 L 144.872 19.840 A 261.000 261.000 0 0 1 148.595 18.124 Z" fill="#2F8EEE"/>
    <path d="M 256.000 256.000 L 146.937 18.879 A 261.000 261.000 0 0 1 150.675 17.196 Z" fill="#2F8EEE"/>
    <path d="M 256.000 256.000 L 149.010 17.937 A 261.000 261.000 0 0 1 152.763 16.285 Z" fill="#308DEF"/>
    <path d="M 256.000 256.000 L 151.092 17.012 A 261.000 261.000 0 0 1 154.858 15.394 Z" fill="#308DEF"/>
    <path d="M 256.000 256.000 L 153.181 16.106 A 261.000 261.000 0 0 1 156.962 14.520 Z" fill="#318CEF"/>
    <path d="M 256.000 256.000 L 155.279 15.218 A 261.000 261.000 0 0 1 159.073 13.665 Z" fill="#318BF0"/>
    <path d="M 256.000 256.000 L 157.384 14.348 A 261.000 261.000 0 0 1 161.191 12.829 Z" fill="#328BF0"/>
    <path d="M 256.000 256.000 L 159.496 13.496 A 261.000 261.000 0 0 1 163.317 12.010 Z" fill="#328AF0"/>
    <path d="M 256.000 256.000 L 161.616 12.663 A 261.000 261.000 0 0 1 165.450 11.211 Z" fill="#338AF1"/>
    <path d="M 256.000 256.000 L 163.743 11.849 A 261.000 261.000 0 0 1 167.589 10.430 Z" fill="#3389F1"/>
    <path d="M 256.000 256.000 L 165.877 11.053 A 261.000 261.000 0 0 1 169.736 9.668 Z" fill="#3489F1"/>
    <path d="M 256.000 256.000 L 168.018 10.276 A 261.000 261.000 0 0 1 171.889 8.925 Z" fill="#3488F2"/>
    <path d="M 256.000 256.000 L 170.166 9.518 A 261.000 261.000 0 0 1 174.048 8.200 Z" fill="#3588F2"/>
    <path d="M 256.000 256.000 L 172.320 8.778 A 261.000 261.000 0 0 1 176.214 7.494 Z" fill="#3587F2"/>
    <path d="M 256.000 256.000 L 174.481 8.057 A 261.000 261.000 0 0 1 178.385 6.807 Z" fill="#3687F3"/>
    <path d="M 256.000 256.000 L 176.647 7.355 A 261.000 261.000 0 0 1 180.563 6.140 Z" fill="#3686F3"/>
    <path d="M 256.000 256.000 L 178.820 6.672 A 261.000 261.000 0 0 1 182.746 5.491 Z" fill="#3786F3"/>
    <path d="M 256.000 256.000 L 180.999 6.008 A 261.000 261.000 0 0 1 184.935 4.861 Z" fill="#3885F4"/>
    <path d="M 256.000 256.000 L 183.183 5.363 A 261.000 261.000 0 0 1 187.129 4.251 Z" fill="#3885F4"/>
    <path d="M 256.000 256.000 L 185.373 4.737 A 261.000 261.000 0 0 1 189.329 3.659 Z" fill="#3984F4"/>
    <path d="M 256.000 256.000 L 187.569 4.131 A 261.000 261.000 0 0 1 191.533 3.087 Z" fill="#3984F5"/>
    <path d="M 256.000 256.000 L 189.769 3.543 A 261.000 261.000 0 0 1 193.743 2.534 Z" fill="#3A83F5"/>
    <path d="M 256.000 256.000 L 191.975 2.975 A 261.000 261.000 0 0 1 195.957 2.000 Z" fill="#3A83F5"/>
    <path d="M 256.000 256.000 L 194.185 2.426 A 261.000 261.000 0 0 1 198.176 1.486 Z" fill="#3B82F6"/>
    <path d="M 256.000 256.000 L 196.400 1.896 A 261.000 261.000 0 0 1 200.399 0.991 Z" fill="#3B82F6"/>
    <path d="M 256.000 256.000 L 198.620 1.385 A 261.000 261.000 0 0 1 202.627 0.516 Z" fill="#3C82F6"/>
    <path d="M 256.000 256.000 L 200.844 0.894 A 261.000 261.000 0 0 1 204.858 0.060 Z" fill="#3D81F6"/>
    <path d="M 256.000 256.000 L 203.073 0.423 A 261.000 261.000 0 0 1 207.093 -0.377 Z" fill="#3E81F6"/>
    <path d="M 256.000 256.000 L 205.305 -0.029 A 261.000 261.000 0 0 1 209.333 -0.794 Z" fill="#3E80F6"/>
    <path d="M 256.000 256.000 L 207.541 -0.462 A 261.000 261.000 0 0 1 211.575 -1.191 Z" fill="#3F80F6"/>
    <path d="M 256.000 256.000 L 209.781 -0.875 A 261.000 261.000 0 0 1 213.821 -1.569 Z" fill="#4080F6"/>
    <path d="M 256.000 256.000 L 212.024 -1.269 A 261.000 261.000 0 0 1 216.071 -1.928 Z" fill="#417FF6"/>
    <path d="M 256.000 256.000 L 214.271 -1.643 A 261.000 261.000 0 0 1 218.323 -2.266 Z" fill="#417FF6"/>
    <path d="M 256.000 256.000 L 216.521 -1.997 A 261.000 261.000 0 0 1 220.578 -2.585 Z" fill="#427FF6"/>
    <path d="M 256.000 256.000 L 218.774 -2.332 A 261.000 261.000 0 0 1 222.836 -2.884 Z" fill="#437EF6"/>
    <path d="M 256.000 256.000 L 221.030 -2.647 A 261.000 261.000 0 0 1 225.097 -3.164 Z" fill="#447EF6"/>
    <path d="M 256.000 256.000 L 223.288 -2.942 A 261.000 261.000 0 0 1 227.359 -3.424 Z" fill="#447DF6"/>
    <path d="M 256.000 256.000 L 225.549 -3.218 A 261.000 261.000 0 0 1 229.624 -3.664 Z" fill="#457DF6"/>
    <path d="M 256.000 256.000 L 227.812 -3.473 A 261.000 261.000 0 0 1 231.891 -3.884 Z" fill="#467DF6"/>
    <path d="M 256.000 256.000 L 230.078 -3.710 A 261.000 261.000 0 0 1 234.160 -4.085 Z" fill="#477CF6"/>
    <path d="M 256.000 256.000 L 232.345 -3.926 A 261.000 261.000 0 0 1 236.431 -4.265 Z" fill="#487CF6"/>
    <path d="M 256.000 256.000 L 234.614 -4.122 A 261.000 261.000 0 0 1 238.703 -4.426 Z" fill="#487CF6"/>
    <path d="M 256.000 256.000 L 236.885 -4.299 A 261.000 261.000 0 0 1 240.976 -4.567 Z" fill="#497BF6"/>
    <path d="M 256.000 256.000 L 239.157 -4.456 A 261.000 261.000 0 0 1 243.250 -4.688 Z" fill="#4A7BF6"/>
    <path d="M 256.000 256.000 L 241.431 -4.593 A 261.000 261.000 0 0 1 245.526 -4.790 Z" fill="#4B7BF6"/>
    <path d="M 256.000 256.000 L 243.705 -4.710 A 261.000 261.000 0 0 1 247.802 -4.871 Z" fill="#4B7AF6"/>
    <path d="M 256.000 256.000 L 245.981 -4.808 A 261.000 261.000 0 0 1 250.079 -4.933 Z" fill="#4C7AF6"/>
    <path d="M 256.000 256.000 L 248.257 -4.885 A 261.000 261.000 0 0 1 252.356 -4.975 Z" fill="#4D79F6"/>
    <path d="M 256.000 256.000 L 250.534 -4.943 A 261.000 261.000 0 0 1 254.633 -4.996 Z" fill="#4E79F6"/>
    <path d="M 256.000 256.000 L 252.811 -4.981 A 261.000 261.000 0 0 1 256.911 -4.998 Z" fill="#4F79F6"/>
    <path d="M 256.000 256.000 L 255.089 -4.998 A 261.000 261.000 0 0 1 259.189 -4.981 Z" fill="#4F78F6"/>
    <path d="M 256.000 256.000 L 257.367 -4.996 A 261.000 261.000 0 0 1 261.466 -4.943 Z" fill="#5078F6"/>
    <path d="M 256.000 256.000 L 259.644 -4.975 A 261.000 261.000 0 0 1 263.743 -4.885 Z" fill="#5178F6"/>
    <path d="M 256.000 256.000 L 261.921 -4.933 A 261.000 261.000 0 0 1 266.019 -4.808 Z" fill="#5277F6"/>
    <path d="M 256.000 256.000 L 264.198 -4.871 A 261.000 261.000 0 0 1 268.295 -4.710 Z" fill="#5377F6"/>
    <path d="M 256.000 256.000 L 266.474 -4.790 A 261.000 261.000 0 0 1 270.569 -4.593 Z" fill="#5376F6"/>
    <path d="M 256.000 256.000 L 268.750 -4.688 A 261.000 261.000 0 0 1 272.843 -4.456 Z" fill="#5476F6"/>
    <path d="M 256.000 256.000 L 271.024 -4.567 A 261.000 261.000 0 0 1 275.115 -4.299 Z" fill="#5576F6"/>
    <path d="M 256.000 256.000 L 273.297 -4.426 A 261.000 261.000 0 0 1 277.386 -4.122 Z" fill="#5675F6"/>
    <path d="M 256.000 256.000 L 275.569 -4.265 A 261.000 261.000 0 0 1 279.655 -3.926 Z" fill="#5675F6"/>
    <path d="M 256.000 256.000 L 277.840 -4.085 A 261.000 261.000 0 0 1 281.922 -3.710 Z" fill="#5775F6"/>
    <path d="M 256.000 256.000 L 280.109 -3.884 A 261.000 261.000 0 0 1 284.188 -3.473 Z" fill="#5874F6"/>
    <path d="M 256.000 256.000 L 282.376 -3.664 A 261.000 261.000 0 0 1 286.451 -3.218 Z" fill="#5974F6"/>
    <path d="M 256.000 256.000 L 284.641 -3.424 A 261.000 261.000 0 0 1 288.712 -2.942 Z" fill="#5A74F6"/>
    <path d="M 256.000 256.000 L 286.903 -3.164 A 261.000 261.000 0 0 1 290.970 -2.647 Z" fill="#5A73F6"/>
    <path d="M 256.000 256.000 L 289.164 -2.884 A 261.000 261.000 0 0 1 293.226 -2.332 Z" fill="#5B73F6"/>
    <path d="M 256.000 256.000 L 291.422 -2.585 A 261.000 261.000 0 0 1 295.479 -1.997 Z" fill="#5C72F6"/>
    <path d="M 256.000 256.000 L 293.677 -2.266 A 261.000 261.000 0 0 1 297.729 -1.643 Z" fill="#5D72F6"/>
    <path d="M 256.000 256.000 L 295.929 -1.928 A 261.000 261.000 0 0 1 299.976 -1.269 Z" fill="#5D72F6"/>
    <path d="M 256.000 256.000 L 298.179 -1.569 A 261.000 261.000 0 0 1 302.219 -0.875 Z" fill="#5E71F6"/>
    <path d="M 256.000 256.000 L 300.425 -1.191 A 261.000 261.000 0 0 1 304.459 -0.462 Z" fill="#5F71F6"/>
    <path d="M 256.000 256.000 L 302.667 -0.794 A 261.000 261.000 0 0 1 306.695 -0.029 Z" fill="#6071F6"/>
    <path d="M 256.000 256.000 L 304.907 -0.377 A 261.000 261.000 0 0 1 308.927 0.423 Z" fill="#6070F6"/>
    <path d="M 256.000 256.000 L 307.142 0.060 A 261.000 261.000 0 0 1 311.156 0.894 Z" fill="#6170F6"/>
    <path d="M 256.000 256.000 L 309.373 0.516 A 261.000 261.000 0 0 1 313.380 1.385 Z" fill="#626FF6"/>
    <path d="M 256.000 256.000 L 311.601 0.991 A 261.000 261.000 0 0 1 315.600 1.896 Z" fill="#636FF6"/>
    <path d="M 256.000 256.000 L 313.824 1.486 A 261.000 261.000 0 0 1 317.815 2.426 Z" fill="#646FF6"/>
    <path d="M 256.000 256.000 L 316.043 2.000 A 261.000 261.000 0 0 1 320.025 2.975 Z" fill="#646EF6"/>
    <path d="M 256.000 256.000 L 318.257 2.534 A 261.000 261.000 0 0 1 322.231 3.543 Z" fill="#656EF6"/>
    <path d="M 256.000 256.000 L 320.467 3.087 A 261.000 261.000 0 0 1 324.431 4.131 Z" fill="#666EF6"/>
    <path d="M 256.000 256.000 L 322.671 3.659 A 261.000 261.000 0 0 1 326.627 4.737 Z" fill="#676DF6"/>
    <path d="M 256.000 256.000 L 324.871 4.251 A 261.000 261.000 0 0 1 328.817 5.363 Z" fill="#676DF6"/>
    <path d="M 256.000 256.000 L 327.065 4.861 A 261.000 261.000 0 0 1 331.001 6.008 Z" fill="#686CF6"/>
    <path d="M 256.000 256.000 L 329.254 5.491 A 261.000 261.000 0 0 1 333.180 6.672 Z" fill="#696CF6"/>
    <path d="M 256.000 256.000 L 331.437 6.140 A 261.000 261.000 0 0 1 335.353 7.355 Z" fill="#6A6CF6"/>
    <path d="M 256.000 256.000 L 333.615 6.807 A 261.000 261.000 0 0 1 337.519 8.057 Z" fill="#6B6BF6"/>
    <path d="M 256.000 256.000 L 335.786 7.494 A 261.000 261.000 0 0 1 339.680 8.778 Z" fill="#6B6BF6"/>
    <path d="M 256.000 256.000 L 337.952 8.200 A 261.000 261.000 0 0 1 341.834 9.518 Z" fill="#6C6BF6"/>
    <path d="M 256.000 256.000 L 340.111 8.925 A 261.000 261.000 0 0 1 343.982 10.276 Z" fill="#6D6AF6"/>
    <path d="M 256.000 256.000 L 342.264 9.668 A 261.000 261.000 0 0 1 346.123 11.053 Z" fill="#6E6AF6"/>
    <path d="M 256.000 256.000 L 344.411 10.430 A 261.000 261.000 0 0 1 348.257 11.849 Z" fill="#6E6AF6"/>
    <path d="M 256.000 256.000 L 346.550 11.211 A 261.000 261.000 0 0 1 350.384 12.663 Z" fill="#6F69F6"/>
    <path d="M 256.000 256.000 L 348.683 12.010 A 261.000 261.000 0 0 1 352.504 13.496 Z" fill="#7069F6"/>
    <path d="M 256.000 256.000 L 350.809 12.829 A 261.000 261.000 0 0 1 354.616 14.348 Z" fill="#7168F6"/>
    <path d="M 256.000 256.000 L 352.927 13.665 A 261.000 261.000 0 0 1 356.721 15.218 Z" fill="#7268F6"/>
    <path d="M 256.000 256.000 L 355.038 14.520 A 261.000 261.000 0 0 1 358.819 16.106 Z" fill="#7268F6"/>
    <path d="M 256.000 256.000 L 357.142 15.394 A 261.000 261.000 0 0 1 360.908 17.012 Z" fill="#7367F6"/>
    <path d="M 256.000 256.000 L 359.237 16.285 A 261.000 261.000 0 0 1 362.990 17.937 Z" fill="#7467F6"/>
    <path d="M 256.000 256.000 L 361.325 17.196 A 261.000 261.000 0 0 1 365.063 18.879 Z" fill="#7567F6"/>
    <path d="M 256.000 256.000 L 363.405 18.124 A 261.000 261.000 0 0 1 367.128 19.840 Z" fill="#7666F6"/>
    <path d="M 256.000 256.000 L 365.477 19.070 A 261.000 261.000 0 0 1 369.185 20.819 Z" fill="#7666F6"/>
    <path d="M 256.000 256.000 L 367.540 20.034 A 261.000 261.000 0 0 1 371.233 21.816 Z" fill="#7765F6"/>
    <path d="M 256.000 256.000 L 369.595 21.017 A 261.000 261.000 0 0 1 373.272 22.830 Z" fill="#7865F6"/>
    <path d="M 256.000 256.000 L 371.642 22.017 A 261.000 261.000 0 0 1 375.303 23.862 Z" fill="#7965F6"/>
    <path d="M 256.000 256.000 L 373.679 23.035 A 261.000 261.000 0 0 1 377.324 24.912 Z" fill="#7964F6"/>
    <path d="M 256.000 256.000 L 375.708 24.071 A 261.000 261.000 0 0 1 379.336 25.980 Z" fill="#7A64F6"/>
    <path d="M 256.000 256.000 L 377.727 25.124 A 261.000 261.000 0 0 1 381.338 27.065 Z" fill="#7B64F6"/>
    <path d="M 256.000 256.000 L 379.737 26.195 A 261.000 261.000 0 0 1 383.331 28.167 Z" fill="#7C63F6"/>
    <path d="M 256.000 256.000 L 381.738 27.284 A 261.000 261.000 0 0 1 385.315 29.287 Z" fill="#7D63F6"/>
    <path d="M 256.000 256.000 L 383.729 28.390 A 261.000 261.000 0 0 1 387.288 30.424 Z" fill="#7D63F6"/>
    <path d="M 256.000 256.000 L 385.710 29.513 A 261.000 261.000 0 0 1 389.252 31.579 Z" fill="#7E62F6"/>
    <path d="M 256.000 256.000 L 387.682 30.654 A 261.000 261.000 0 0 1 391.205 32.750 Z" fill="#7F62F6"/>
    <path d="M 256.000 256.000 L 389.643 31.811 A 261.000 261.000 0 0 1 393.148 33.938 Z" fill="#8061F6"/>
    <path d="M 256.000 256.000 L 391.594 32.986 A 261.000 261.000 0 0 1 395.081 35.144 Z" fill="#8061F6"/>
    <path d="M 256.000 256.000 L 393.535 34.178 A 261.000 261.000 0 0 1 397.003 36.366 Z" fill="#8161F6"/>
    <path d="M 256.000 256.000 L 395.466 35.387 A 261.000 261.000 0 0 1 398.914 37.605 Z" fill="#8260F6"/>
    <path d="M 256.000 256.000 L 397.386 36.612 A 261.000 261.000 0 0 1 400.814 38.860 Z" fill="#8360F6"/>
    <path d="M 256.000 256.000 L 399.295 37.854 A 261.000 261.000 0 0 1 402.704 40.132 Z" fill="#8460F6"/>
    <path d="M 256.000 256.000 L 401.193 39.113 A 261.000 261.000 0 0 1 404.582 41.420 Z" fill="#845FF6"/>
    <path d="M 256.000 256.000 L 403.080 40.388 A 261.000 261.000 0 0 1 406.449 42.725 Z" fill="#855FF6"/>
    <path d="M 256.000 256.000 L 404.956 41.680 A 261.000 261.000 0 0 1 408.304 44.046 Z" fill="#865EF6"/>
    <path d="M 256.000 256.000 L 406.821 42.988 A 261.000 261.000 0 0 1 410.148 45.383 Z" fill="#875EF6"/>
    <path d="M 256.000 256.000 L 408.674 44.312 A 261.000 261.000 0 0 1 411.980 46.737 Z" fill="#875EF6"/>
    <path d="M 256.000 256.000 L 410.515 45.653 A 261.000 261.000 0 0 1 413.800 48.106 Z" fill="#885DF6"/>
    <path d="M 256.000 256.000 L 412.345 47.009 A 261.000 261.000 0 0 1 415.609 49.491 Z" fill="#895DF6"/>
    <path d="M 256.000 256.000 L 414.163 48.381 A 261.000 261.000 0 0 1 417.405 50.891 Z" fill="#8A5DF6"/>
    <path d="M 256.000 256.000 L 415.969 49.770 A 261.000 261.000 0 0 1 419.188 52.308 Z" fill="#8A5CF6"/>
    <path d="M 256.000 256.000 L 417.762 51.173 A 261.000 261.000 0 0 1 420.960 53.739 Z" fill="#8B5CF5"/>
    <path d="M 256.000 256.000 L 419.544 52.593 A 261.000 261.000 0 0 1 422.718 55.187 Z" fill="#8C5CF4"/>
    <path d="M 256.000 256.000 L 421.312 54.028 A 261.000 261.000 0 0 1 424.464 56.649 Z" fill="#8D5BF3"/>
    <path d="M 256.000 256.000 L 423.069 55.478 A 261.000 261.000 0 0 1 426.198 58.127 Z" fill="#8E5BF1"/>
    <path d="M 256.000 256.000 L 424.812 56.944 A 261.000 261.000 0 0 1 427.918 59.620 Z" fill="#8F5BF0"/>
    <path d="M 256.000 256.000 L 426.543 58.424 A 261.000 261.000 0 0 1 429.625 61.127 Z" fill="#905AEE"/>
    <path d="M 256.000 256.000 L 428.260 59.920 A 261.000 261.000 0 0 1 431.319 62.650 Z" fill="#915AED"/>
    <path d="M 256.000 256.000 L 429.965 61.431 A 261.000 261.000 0 0 1 433.000 64.187 Z" fill="#935AEB"/>
    <path d="M 256.000 256.000 L 431.656 62.956 A 261.000 261.000 0 0 1 434.667 65.739 Z" fill="#945AEA"/>
    <path d="M 256.000 256.000 L 433.334 64.497 A 261.000 261.000 0 0 1 436.320 67.306 Z" fill="#9559E8"/>
    <path d="M 256.000 256.000 L 434.999 66.051 A 261.000 261.000 0 0 1 437.960 68.886 Z" fill="#9659E7"/>
    <path d="M 256.000 256.000 L 436.649 67.621 A 261.000 261.000 0 0 1 439.586 70.481 Z" fill="#9759E5"/>
    <path d="M 256.000 256.000 L 438.286 69.204 A 261.000 261.000 0 0 1 441.198 72.090 Z" fill="#9859E4"/>
    <path d="M 256.000 256.000 L 439.910 70.802 A 261.000 261.000 0 0 1 442.796 73.714 Z" fill="#9958E2"/>
    <path d="M 256.000 256.000 L 441.519 72.414 A 261.000 261.000 0 0 1 444.379 75.351 Z" fill="#9A58E1"/>
    <path d="M 256.000 256.000 L 443.114 74.040 A 261.000 261.000 0 0 1 445.949 77.001 Z" fill="#9B58DF"/>
    <path d="M 256.000 256.000 L 444.694 75.680 A 261.000 261.000 0 0 1 447.503 78.666 Z" fill="#9C57DE"/>
    <path d="M 256.000 256.000 L 446.261 77.333 A 261.000 261.000 0 0 1 449.044 80.344 Z" fill="#9D57DC"/>
    <path d="M 256.000 256.000 L 447.813 79.000 A 261.000 261.000 0 0 1 450.569 82.035 Z" fill="#9E57DB"/>
    <path d="M 256.000 256.000 L 449.350 80.681 A 261.000 261.000 0 0 1 452.080 83.740 Z" fill="#9F57D9"/>
    <path d="M 256.000 256.000 L 450.873 82.375 A 261.000 261.000 0 0 1 453.576 85.457 Z" fill="#A056D8"/>
    <path d="M 256.000 256.000 L 452.380 84.082 A 261.000 261.000 0 0 1 455.056 87.188 Z" fill="#A156D6"/>
    <path d="M 256.000 256.000 L 453.873 85.802 A 261.000 261.000 0 0 1 456.522 88.931 Z" fill="#A256D5"/>
    <path d="M 256.000 256.000 L 455.351 87.536 A 261.000 261.000 0 0 1 457.972 90.688 Z" fill="#A355D3"/>
    <path d="M 256.000 256.000 L 456.813 89.282 A 261.000 261.000 0 0 1 459.407 92.456 Z" fill="#A455D2"/>
    <path d="M 256.000 256.000 L 458.261 91.040 A 261.000 261.000 0 0 1 460.827 94.238 Z" fill="#A555D1"/>
    <path d="M 256.000 256.000 L 459.692 92.812 A 261.000 261.000 0 0 1 462.230 96.031 Z" fill="#A655CF"/>
    <path d="M 256.000 256.000 L 461.109 94.595 A 261.000 261.000 0 0 1 463.619 97.837 Z" fill="#A754CE"/>
    <path d="M 256.000 256.000 L 462.509 96.391 A 261.000 261.000 0 0 1 464.991 99.655 Z" fill="#A854CC"/>
    <path d="M 256.000 256.000 L 463.894 98.200 A 261.000 261.000 0 0 1 466.347 101.485 Z" fill="#A954CB"/>
    <path d="M 256.000 256.000 L 465.263 100.020 A 261.000 261.000 0 0 1 467.688 103.326 Z" fill="#AA53C9"/>
    <path d="M 256.000 256.000 L 466.617 101.852 A 261.000 261.000 0 0 1 469.012 105.179 Z" fill="#AB53C8"/>
    <path d="M 256.000 256.000 L 467.954 103.696 A 261.000 261.000 0 0 1 470.320 107.044 Z" fill="#AC53C6"/>
    <path d="M 256.000 256.000 L 469.275 105.551 A 261.000 261.000 0 0 1 471.612 108.920 Z" fill="#AD53C5"/>
    <path d="M 256.000 256.000 L 470.580 107.418 A 261.000 261.000 0 0 1 472.887 110.807 Z" fill="#AE52C3"/>
    <path d="M 256.000 256.000 L 471.868 109.296 A 261.000 261.000 0 0 1 474.146 112.705 Z" fill="#AF52C2"/>
    <path d="M 256.000 256.000 L 473.140 111.186 A 261.000 261.000 0 0 1 475.388 114.614 Z" fill="#B052C0"/>
    <path d="M 256.000 256.000 L 474.395 113.086 A 261.000 261.000 0 0 1 476.613 116.534 Z" fill="#B151BF"/>
    <path d="M 256.000 256.000 L 475.634 114.997 A 261.000 261.000 0 0 1 477.822 118.465 Z" fill="#B251BD"/>
    <path d="M 256.000 256.000 L 476.856 116.919 A 261.000 261.000 0 0 1 479.014 120.406 Z" fill="#B351BC"/>
    <path d="M 256.000 256.000 L 478.062 118.852 A 261.000 261.000 0 0 1 480.189 122.357 Z" fill="#B451BA"/>
    <path d="M 256.000 256.000 L 479.250 120.795 A 261.000 261.000 0 0 1 481.346 124.318 Z" fill="#B550B9"/>
    <path d="M 256.000 256.000 L 480.421 122.748 A 261.000 261.000 0 0 1 482.487 126.290 Z" fill="#B650B7"/>
    <path d="M 256.000 256.000 L 481.576 124.712 A 261.000 261.000 0 0 1 483.610 128.271 Z" fill="#B750B6"/>
    <path d="M 256.000 256.000 L 482.713 126.685 A 261.000 261.000 0 0 1 484.716 130.262 Z" fill="#B84FB4"/>
    <path d="M 256.000 256.000 L 483.833 128.669 A 261.000 261.000 0 0 1 485.805 132.263 Z" fill="#B94FB3"/>
    <path d="M 256.000 256.000 L 484.935 130.662 A 261.000 261.000 0 0 1 486.876 134.273 Z" fill="#BA4FB1"/>
    <path d="M 256.000 256.000 L 486.020 132.664 A 261.000 261.000 0 0 1 487.929 136.292 Z" fill="#BB4FB0"/>
    <path d="M 256.000 256.000 L 487.088 134.676 A 261.000 261.000 0 0 1 488.965 138.321 Z" fill="#BC4EAF"/>
    <path d="M 256.000 256.000 L 488.138 136.697 A 261.000 261.000 0 0 1 489.983 140.358 Z" fill="#BD4EAD"/>
    <path d="M 256.000 256.000 L 489.170 138.728 A 261.000 261.000 0 0 1 490.983 142.405 Z" fill="#BE4EAC"/>
    <path d="M 256.000 256.000 L 490.184 140.767 A 261.000 261.000 0 0 1 491.966 144.460 Z" fill="#BF4EAA"/>
    <path d="M 256.000 256.000 L 491.181 142.815 A 261.000 261.000 0 0 1 492.930 146.523 Z" fill="#C04DA9"/>
    <path d="M 256.000 256.000 L 492.160 144.872 A 261.000 261.000 0 0 1 493.876 148.595 Z" fill="#C14DA7"/>
    <path d="M 256.000 256.000 L 493.121 146.937 A 261.000 261.000 0 0 1 494.804 150.675 Z" fill="#C24DA6"/>
    <path d="M 256.000 256.000 L 494.063 149.010 A 261.000 261.000 0 0 1 495.715 152.763 Z" fill="#C44CA4"/>
    <path d="M 256.000 256.000 L 494.988 151.092 A 261.000 261.000 0 0 1 496.606 154.858 Z" fill="#C54CA3"/>
    <path d="M 256.000 256.000 L 495.894 153.181 A 261.000 261.000 0 0 1 497.480 156.962 Z" fill="#C64CA1"/>
    <path d="M 256.000 256.000 L 496.782 155.279 A 261.000 261.000 0 0 1 498.335 159.073 Z" fill="#C74CA0"/>
    <path d="M 256.000 256.000 L 497.652 157.384 A 261.000 261.000 0 0 1 499.171 161.191 Z" fill="#C84B9E"/>
    <path d="M 256.000 256.000 L 498.504 159.496 A 261.000 261.000 0 0 1 499.990 163.317 Z" fill="#C94B9D"/>
    <path d="M 256.000 256.000 L 499.337 161.616 A 261.000 261.000 0 0 1 500.789 165.450 Z" fill="#CA4B9B"/>
    <path d="M 256.000 256.000 L 500.151 163.743 A 261.000 261.000 0 0 1 501.570 167.589 Z" fill="#CB4A9A"/>
    <path d="M 256.000 256.000 L 500.947 165.877 A 261.000 261.000 0 0 1 502.332 169.736 Z" fill="#CC4A98"/>
    <path d="M 256.000 256.000 L 501.724 168.018 A 261.000 261.000 0 0 1 503.075 171.889 Z" fill="#CD4A97"/>
    <path d="M 256.000 256.000 L 502.482 170.166 A 261.000 261.000 0 0 1 503.800 174.048 Z" fill="#CE4A95"/>
    <path d="M 256.000 256.000 L 503.222 172.320 A 261.000 261.000 0 0 1 504.506 176.214 Z" fill="#CF4994"/>
    <path d="M 256.000 256.000 L 503.943 174.481 A 261.000 261.000 0 0 1 505.193 178.385 Z" fill="#D04992"/>
    <path d="M 256.000 256.000 L 504.645 176.647 A 261.000 261.000 0 0 1 505.860 180.563 Z" fill="#D14991"/>
    <path d="M 256.000 256.000 L 505.328 178.820 A 261.000 261.000 0 0 1 506.509 182.746 Z" fill="#D24890"/>
    <path d="M 256.000 256.000 L 505.992 180.999 A 261.000 261.000 0 0 1 507.139 184.935 Z" fill="#D3488E"/>
    <path d="M 256.000 256.000 L 506.637 183.183 A 261.000 261.000 0 0 1 507.749 187.129 Z" fill="#D4488D"/>
    <path d="M 256.000 256.000 L 507.263 185.373 A 261.000 261.000 0 0 1 508.341 189.329 Z" fill="#D5488B"/>
    <path d="M 256.000 256.000 L 507.869 187.569 A 261.000 261.000 0 0 1 508.913 191.533 Z" fill="#D6478A"/>
    <path d="M 256.000 256.000 L 508.457 189.769 A 261.000 261.000 0 0 1 509.466 193.743 Z" fill="#D74788"/>
    <path d="M 256.000 256.000 L 509.025 191.975 A 261.000 261.000 0 0 1 510.000 195.957 Z" fill="#D84787"/>
    <path d="M 256.000 256.000 L 509.574 194.185 A 261.000 261.000 0 0 1 510.514 198.176 Z" fill="#D94685"/>
    <path d="M 256.000 256.000 L 510.104 196.400 A 261.000 261.000 0 0 1 511.009 200.399 Z" fill="#DA4684"/>
    <path d="M 256.000 256.000 L 510.615 198.620 A 261.000 261.000 0 0 1 511.484 202.627 Z" fill="#DB4682"/>
    <path d="M 256.000 256.000 L 511.106 200.844 A 261.000 261.000 0 0 1 511.940 204.858 Z" fill="#DC4681"/>
    <path d="M 256.000 256.000 L 511.577 203.073 A 261.000 261.000 0 0 1 512.377 207.093 Z" fill="#DD457F"/>
    <path d="M 256.000 256.000 L 512.029 205.305 A 261.000 261.000 0 0 1 512.794 209.333 Z" fill="#DE457E"/>
    <path d="M 256.000 256.000 L 512.462 207.541 A 261.000 261.000 0 0 1 513.191 211.575 Z" fill="#DF457C"/>
    <path d="M 256.000 256.000 L 512.875 209.781 A 261.000 261.000 0 0 1 513.569 213.821 Z" fill="#E0447B"/>
    <path d="M 256.000 256.000 L 513.269 212.024 A 261.000 261.000 0 0 1 513.928 216.071 Z" fill="#E14479"/>
    <path d="M 256.000 256.000 L 513.643 214.271 A 261.000 261.000 0 0 1 514.266 218.323 Z" fill="#E24478"/>
    <path d="M 256.000 256.000 L 513.997 216.521 A 261.000 261.000 0 0 1 514.585 220.578 Z" fill="#E34476"/>
    <path d="M 256.000 256.000 L 514.332 218.774 A 261.000 261.000 0 0 1 514.884 222.836 Z" fill="#E44375"/>
    <path d="M 256.000 256.000 L 514.647 221.030 A 261.000 261.000 0 0 1 515.164 225.097 Z" fill="#E54373"/>
    <path d="M 256.000 256.000 L 514.942 223.288 A 261.000 261.000 0 0 1 515.424 227.359 Z" fill="#E64372"/>
    <path d="M 256.000 256.000 L 515.218 225.549 A 261.000 261.000 0 0 1 515.664 229.624 Z" fill="#E74370"/>
    <path d="M 256.000 256.000 L 515.473 227.812 A 261.000 261.000 0 0 1 515.884 231.891 Z" fill="#E8426F"/>
    <path d="M 256.000 256.000 L 515.710 230.078 A 261.000 261.000 0 0 1 516.085 234.160 Z" fill="#E9426E"/>
    <path d="M 256.000 256.000 L 515.926 232.345 A 261.000 261.000 0 0 1 516.265 236.431 Z" fill="#EA426C"/>
    <path d="M 256.000 256.000 L 516.122 234.614 A 261.000 261.000 0 0 1 516.426 238.703 Z" fill="#EB416B"/>
    <path d="M 256.000 256.000 L 516.299 236.885 A 261.000 261.000 0 0 1 516.567 240.976 Z" fill="#EC4169"/>
    <path d="M 256.000 256.000 L 516.456 239.157 A 261.000 261.000 0 0 1 516.688 243.250 Z" fill="#ED4168"/>
    <path d="M 256.000 256.000 L 516.593 241.431 A 261.000 261.000 0 0 1 516.790 245.526 Z" fill="#EE4166"/>
    <path d="M 256.000 256.000 L 516.710 243.705 A 261.000 261.000 0 0 1 516.871 247.802 Z" fill="#EF4065"/>
    <path d="M 256.000 256.000 L 516.808 245.981 A 261.000 261.000 0 0 1 516.933 250.079 Z" fill="#F04063"/>
    <path d="M 256.000 256.000 L 516.885 248.257 A 261.000 261.000 0 0 1 516.975 252.356 Z" fill="#F14062"/>
    <path d="M 256.000 256.000 L 516.943 250.534 A 261.000 261.000 0 0 1 516.996 254.633 Z" fill="#F23F60"/>
    <path d="M 256.000 256.000 L 516.981 252.811 A 261.000 261.000 0 0 1 516.998 256.911 Z" fill="#F33F5F"/>
  </g>
</svg>
